SourceSerif_0.ufo
<glyph name="numbersign" format="2">
	<unicode hex="0023"/>
	<advance width="510"/>
	<outline>
		<contour>
			<point x="91" y="0" type="line"/>
			<point x="113" y="0" type="line"/>
			<point x="210" y="652" type="line"/>
			<point x="188" y="652" type="line"/>
		</contour>
		<contour>
			<point x="23" y="235" type="line"/>
			<point x="23" y="208" type="line"/>
			<point x="454" y="208" type="line"/>
			<point x="454" y="235" type="line"/>
		</contour>
		<contour>
			<point x="488" y="440" type="line"/>
			<point x="488" y="466" type="line"/>
			<point x="57" y="466" type="line"/>
			<point x="57" y="440" type="line"/>
		</contour>
		<contour>
			<point x="292" y="0" type="line"/>
			<point x="314" y="0" type="line"/>
			<point x="411" y="652" type="line"/>
			<point x="389" y="652" type="line"/>
		</contour>
	</outline>
</glyph>
<glyph name="hyphen" format="1">
	<unicode hex="002D"/>
	<advance width="310"/>
	<outline>
		<contour>
			<point x="40" y="235" type="line"/>
			<point x="270" y="235" type="line"/>
			<point x="270" y="261" type="line"/>
			<point x="40" y="261" type="line"/>
		</contour>
	</outline>
</glyph>
<glyph name="less" format="2">
	<unicode hex="003C"/>
	<advance width="530"/>
	<outline>
		<contour>
			<point x="65" y="326" type="line"/>
			<point x="451" y="93" type="line"/>
			<point x="464" y="114" type="line"/>
			<point x="78" y="347" type="line"/>
			<point x="78" y="326" type="line"/>
			<point x="464" y="558" type="line"/>
			<point x="451" y="579" type="line"/>
			<point x="65" y="347" type="line"/>
		</contour>
	</outline>
</glyph>
<glyph name="C" format="2">
	<unicode hex="0043"/>
	<advance width="644"/>
	<outline>
		<contour>
			<point x="64" y="129"/>
			<point x="193" y="-13"/>
			<point x="388" y="-13" type="curve" smooth="yes"/>
			<point x="460" y="-13"/>
			<point x="517" y="-1"/>
			<point x="584" y="40" type="curve"/>
			<point x="588" y="179" type="line"/>
			<point x="564" y="179" type="line"/>
			<point x="546" y="40" type="line"/>
			<point x="563" y="44" type="line"/>
			<point x="563" y="60" type="line"/>
			<point x="508" y="23"/>
			<point x="453" y="9"/>
			<point x="386" y="9" type="curve" smooth="yes"/>
			<point x="219" y="9"/>
			<point x="96" y="135"/>
			<point x="96" y="338" type="curve" smooth="yes"/>
			<point x="96" y="537"/>
			<point x="212" y="668"/>
			<point x="392" y="668" type="curve" smooth="yes"/>
			<point x="465" y="668"/>
			<point x="505" y="651"/>
			<point x="561" y="614" type="curve"/>
			<point x="561" y="634" type="line"/>
			<point x="540" y="643" type="line"/>
			<point x="558" y="498" type="line"/>
			<point x="582" y="498" type="line"/>
			<point x="578" y="637" type="line"/>
			<point x="518" y="672"/>
			<point x="469" y="690"/>
			<point x="389" y="690" type="curve" smooth="yes"/>
			<point x="199" y="690"/>
			<point x="64" y="548"/>
			<point x="64" y="338" type="curve" smooth="yes"/>
		</contour>
	</outline>
	<anchor name="aboveUC" x="373" y="682"/>
	<anchor name="belowLC" x="380" y="-22"/>
	<anchor name="baseLC" x="381" y="0"/>
</glyph>
<glyph name="I" format="1">
	<unicode hex="0049"/>
	<advance width="364"/>
	<outline>
		<contour>
			<point x="175" y="27" type="line"/>
			<point x="58" y="20" type="line"/>
			<point x="58" y="0" type="line"/>
			<point x="306" y="0" type="line"/>
			<point x="306" y="20" type="line"/>
			<point x="189" y="27" type="line"/>
		</contour>
		<contour>
			<point x="175" y="650" type="line"/>
			<point x="189" y="650" type="line"/>
			<point x="306" y="657" type="line"/>
			<point x="306" y="677" type="line"/>
			<point x="58" y="677" type="line"/>
			<point x="58" y="657" type="line"/>
		</contour>
		<contour>
			<point x="167" y="310" type="line" smooth="yes"/>
			<point x="167" y="206"/>
			<point x="167" y="102"/>
			<point x="165" y="0" type="curve"/>
			<point x="199" y="0" type="line"/>
			<point x="197" y="102"/>
			<point x="197" y="206"/>
			<point x="197" y="310" type="curve" smooth="yes"/>
			<point x="197" y="367" type="line" smooth="yes"/>
			<point x="197" y="471"/>
			<point x="197" y="575"/>
			<point x="199" y="677" type="curve"/>
			<point x="165" y="677" type="line"/>
			<point x="167" y="575"/>
			<point x="167" y="471"/>
			<point x="167" y="367" type="curve" smooth="yes"/>
		</contour>
		<contour>
			<point name="aboveUC" x="182" y="682" type="move"/>
		</contour>
		<contour>
			<point name="belowLC" x="182" y="-22" type="move"/>
		</contour>
		<contour>
			<point name="ogonek" x="220" y="0" type="move"/>
		</contour>
	</outline>
</glyph>
<glyph name="W" format="2">
	<unicode hex="0057"/>
	<advance width="966"/>
	<outline>
		<contour>
			<point x="848" y="650" type="line"/>
			<point x="956" y="657" type="line"/>
			<point x="956" y="677" type="line"/>
			<point x="728" y="677" type="line"/>
			<point x="728" y="657" type="line"/>
			<point x="834" y="650" type="line"/>
		</contour>
		<contour>
			<point x="497" y="650" type="line"/>
			<point x="606" y="657" type="line"/>
			<point x="606" y="677" type="line"/>
			<point x="378" y="677" type="line"/>
			<point x="378" y="657" type="line"/>
			<point x="483" y="650" type="line"/>
		</contour>
		<contour>
			<point x="128" y="650" type="line"/>
			<point x="239" y="657" type="line"/>
			<point x="239" y="677" type="line"/>
			<point x="11" y="677" type="line"/>
			<point x="11" y="657" type="line"/>
			<point x="114" y="650" type="line"/>
		</contour>
		<contour>
			<point x="664" y="-7" type="line"/>
			<point x="684" y="-7" type="line"/>
			<point x="861" y="677" type="line"/>
			<point x="835" y="677" type="line"/>
			<point x="678" y="45" type="line"/>
			<point x="495" y="677" type="line"/>
			<point x="481" y="677" type="line"/>
			<point x="299" y="48" type="line"/>
			<point x="129" y="677" type="line"/>
			<point x="99" y="677" type="line"/>
			<point x="284" y="-7" type="line"/>
			<point x="304" y="-7" type="line"/>
			<point x="484" y="613" type="line"/>
		</contour>
	</outline>
	<anchor name="aboveUC" x="485" y="682"/>
	<anchor name="belowLC" x="501" y="-22"/>
</glyph>
<glyph name="Z" format="2">
	<unicode hex="005A"/>
	<advance width="555"/>
	<outline>
		<contour>
			<point x="30" y="0" type="line"/>
			<point x="515" y="0" type="line"/>
			<point x="525" y="163" type="line"/>
			<point x="503" y="163" type="line"/>
			<point x="481" y="10" type="line"/>
			<point x="498" y="22" type="line"/>
			<point x="47" y="22" type="line"/>
			<point x="57" y="9" type="line"/>
			<point x="506" y="657" type="line"/>
			<point x="506" y="677" type="line"/>
			<point x="53" y="677" type="line"/>
			<point x="45" y="514" type="line"/>
			<point x="67" y="514" type="line"/>
			<point x="88" y="669" type="line"/>
			<point x="68" y="655" type="line"/>
			<point x="490" y="655" type="line"/>
			<point x="480" y="667" type="line"/>
			<point x="30" y="20" type="line"/>
		</contour>
	</outline>
	<anchor name="aboveUC" x="287" y="682"/>
	<anchor name="belowLC" x="286" y="-22"/>
</glyph>
<glyph name="z" format="2">
	<unicode hex="007A"/>
	<advance width="457"/>
	<outline>
		<contour>
			<point x="54" y="0" type="line"/>
			<point x="411" y="0" type="line"/>
			<point x="418" y="139" type="line"/>
			<point x="397" y="139" type="line"/>
			<point x="374" y="8" type="line"/>
			<point x="390" y="20" type="line"/>
			<point x="69" y="20" type="line"/>
			<point x="76" y="5" type="line"/>
			<point x="401" y="450" type="line"/>
			<point x="401" y="470" type="line"/>
			<point x="59" y="470" type="line"/>
			<point x="53" y="345" type="line"/>
			<point x="74" y="341" type="line"/>
			<point x="94" y="462" type="line"/>
			<point x="77" y="450" type="line"/>
			<point x="383" y="450" type="line"/>
			<point x="378" y="465" type="line"/>
			<point x="54" y="20" type="line"/>
		</contour>
	</outline>
	<anchor name="aboveLC" x="240" y="500"/>
	<anchor name="belowLC" x="242" y="-22"/>
</glyph>
<glyph name="currency" format="2">
	<unicode hex="00A4"/>
	<advance width="490"/>
	<outline>
		<contour>
			<point x="358" y="438" type="line"/>
			<point x="405" y="475" type="line" smooth="yes"/>
			<point x="439" y="499"/>
			<point x="462" y="516"/>
			<point x="462" y="533" type="curve" smooth="yes"/>
			<point x="462" y="543"/>
			<point x="453" y="552"/>
			<point x="443" y="552" type="curve" smooth="yes"/>
			<point x="426" y="552"/>
			<point x="408" y="528"/>
			<point x="384" y="495" type="curve" smooth="yes"/>
			<point x="348" y="448" type="line"/>
		</contour>
		<contour>
			<point x="104" y="336" type="curve" smooth="yes"/>
			<point x="104" y="419"/>
			<point x="168" y="478"/>
			<point x="246" y="478" type="curve" smooth="yes"/>
			<point x="323" y="478"/>
			<point x="386" y="419"/>
			<point x="386" y="336" type="curve" smooth="yes"/>
			<point x="386" y="256"/>
			<point x="324" y="194"/>
			<point x="246" y="194" type="curve" smooth="yes"/>
			<point x="170" y="194"/>
			<point x="104" y="252"/>
		</contour>
		<contour>
			<point x="81" y="336" type="curve" smooth="yes"/>
			<point x="81" y="239"/>
			<point x="157" y="174"/>
			<point x="246" y="174" type="curve" smooth="yes"/>
			<point x="334" y="174"/>
			<point x="410" y="239"/>
			<point x="410" y="336" type="curve" smooth="yes"/>
			<point x="410" y="433"/>
			<point x="334" y="498"/>
			<point x="246" y="498" type="curve" smooth="yes"/>
			<point x="157" y="498"/>
			<point x="81" y="433"/>
		</contour>
		<contour>
			<point x="143" y="449" type="line"/>
			<point x="106" y="496" type="line" smooth="yes"/>
			<point x="82" y="530"/>
			<point x="65" y="553"/>
			<point x="48" y="553" type="curve" smooth="yes"/>
			<point x="38" y="553"/>
			<point x="29" y="544"/>
			<point x="29" y="534" type="curve" smooth="yes"/>
			<point x="29" y="517"/>
			<point x="53" y="499"/>
			<point x="86" y="475" type="curve" smooth="yes"/>
			<point x="133" y="439" type="line"/>
		</contour>
		<contour>
			<point x="132" y="234" type="line"/>
			<point x="85" y="197" type="line" smooth="yes"/>
			<point x="51" y="173"/>
			<point x="28" y="156"/>
			<point x="28" y="139" type="curve" smooth="yes"/>
			<point x="28" y="129"/>
			<point x="37" y="120"/>
			<point x="47" y="120" type="curve" smooth="yes"/>
			<point x="64" y="120"/>
			<point x="82" y="144"/>
			<point x="106" y="177" type="curve" smooth="yes"/>
			<point x="142" y="224" type="line"/>
		</contour>
		<contour>
			<point x="347" y="223" type="line"/>
			<point x="384" y="176" type="line" smooth="yes"/>
			<point x="408" y="142"/>
			<point x="425" y="119"/>
			<point x="442" y="119" type="curve" smooth="yes"/>
			<point x="452" y="119"/>
			<point x="461" y="128"/>
			<point x="461" y="138" type="curve" smooth="yes"/>
			<point x="461" y="155"/>
			<point x="437" y="173"/>
			<point x="404" y="197" type="curve" smooth="yes"/>
			<point x="357" y="233" type="line"/>
		</contour>
	</outline>
</glyph>
<glyph name="one.sups" format="2">
	<unicode hex="00B9"/>
	<advance width="339"/>
	<outline>
		<contour>
			<point x="75" y="808" type="line"/>
			<point x="75" y="790" type="line"/>
			<point x="170" y="805" type="line"/>
			<point x="170" y="437" type="line"/>
			<point x="198" y="437" type="line"/>
			<point x="198" y="832" type="line"/>
			<point x="189" y="839" type="line"/>
		</contour>
		<contour>
			<point x="195" y="461" type="line"/>
			<point x="173" y="461" type="line"/>
			<point x="69" y="453" type="line"/>
			<point x="69" y="437" type="line"/>
			<point x="294" y="437" type="line"/>
			<point x="294" y="453" type="line"/>
		</contour>
	</outline>
</glyph>
<glyph name="ae" format="2">
	<unicode hex="00E6"/>
	<advance width="791"/>
	<outline>
		<contour>
			<point x="87" y="108" type="curve" smooth="yes"/>
			<point x="87" y="162"/>
			<point x="126" y="201"/>
			<point x="207" y="231" type="curve" smooth="yes"/>
			<point x="258" y="250"/>
			<point x="318" y="265"/>
			<point x="369" y="277" type="curve"/>
			<point x="369" y="295" type="line"/>
			<point x="318" y="283"/>
			<point x="262" y="272"/>
			<point x="206" y="254" type="curve" smooth="yes"/>
			<point x="108" y="222"/>
			<point x="57" y="176"/>
			<point x="57" y="104" type="curve" smooth="yes"/>
			<point x="57" y="27"/>
			<point x="108" y="-13"/>
			<point x="185" y="-13" type="curve" smooth="yes"/>
			<point x="249" y="-13"/>
			<point x="299" y="14"/>
			<point x="390" y="121" type="curve"/>
			<point x="381" y="136" type="line"/>
			<point x="283" y="33"/>
			<point x="238" y="13"/>
			<point x="193" y="13" type="curve" smooth="yes"/>
			<point x="122" y="13"/>
			<point x="87" y="52"/>
		</contour>
		<contour>
			<point x="573" y="-13" type="curve" smooth="yes"/>
			<point x="638" y="-13"/>
			<point x="701" y="16"/>
			<point x="741" y="66" type="curve"/>
			<point x="730" y="77" type="line"/>
			<point x="690" y="35"/>
			<point x="637" y="13"/>
			<point x="573" y="13" type="curve" smooth="yes"/>
			<point x="478" y="13"/>
			<point x="384" y="81"/>
			<point x="384" y="245" type="curve" smooth="yes"/>
			<point x="384" y="363"/>
			<point x="458" y="463"/>
			<point x="565" y="463" type="curve" smooth="yes"/>
			<point x="663" y="463"/>
			<point x="715" y="385"/>
			<point x="715" y="302" type="curve" smooth="yes"/>
			<point x="715" y="273"/>
			<point x="709" y="263"/>
			<point x="695" y="263" type="curve" smooth="yes"/>
			<point x="370" y="263" type="line"/>
			<point x="370" y="242" type="line"/>
			<point x="739" y="242" type="line"/>
			<point x="743" y="257"/>
			<point x="745" y="275"/>
			<point x="745" y="299" type="curve" smooth="yes"/>
			<point x="745" y="397"/>
			<point x="681" y="483"/>
			<point x="565" y="483" type="curve" smooth="yes"/>
			<point x="480" y="483"/>
			<point x="409" y="432"/>
			<point x="371" y="333" type="curve"/>
			<point x="364" y="323" type="line"/>
			<point x="356" y="296"/>
			<point x="352" y="268"/>
			<point x="352" y="237" type="curve" smooth="yes"/>
			<point x="352" y="62"/>
			<point x="463" y="-13"/>
		</contour>
		<contour>
			<point x="383" y="339" type="line" smooth="yes"/>
			<point x="383" y="440"/>
			<point x="333" y="483"/>
			<point x="236" y="483" type="curve" smooth="yes"/>
			<point x="152" y="483"/>
			<point x="90" y="444"/>
			<point x="69" y="370" type="curve"/>
			<point x="72" y="358"/>
			<point x="81" y="351"/>
			<point x="93" y="351" type="curve" smooth="yes"/>
			<point x="103" y="351"/>
			<point x="115" y="357"/>
			<point x="118" y="370" type="curve" smooth="yes"/>
			<point x="132" y="441" type="line"/>
			<point x="107" y="415" type="line"/>
			<point x="147" y="449"/>
			<point x="187" y="463"/>
			<point x="234" y="463" type="curve" smooth="yes"/>
			<point x="314" y="463"/>
			<point x="355" y="435"/>
			<point x="355" y="324" type="curve" smooth="yes"/>
			<point x="355" y="268" type="line"/>
			<point x="383" y="268" type="line"/>
		</contour>
	</outline>
	<anchor name="aboveLC" x="396" y="500"/>
	<anchor name="belowLC" x="379" y="-22"/>
</glyph>
<glyph name="gcommaaccent" format="1">
	<unicode hex="0123"/>
	<advance width="510"/>
	<outline>
		<contour>
			<point x="217" y="619" type="curve" smooth="yes"/>
			<point x="217" y="610"/>
			<point x="219" y="599"/>
			<point x="222" y="593" type="curve"/>
			<point x="230" y="585"/>
			<point x="242" y="582"/>
			<point x="252" y="582" type="curve" smooth="yes"/>
			<point x="269" y="582"/>
			<point x="283" y="591"/>
			<point x="283" y="611" type="curve" smooth="yes"/>
			<point x="283" y="628"/>
			<point x="265" y="645"/>
			<point x="238" y="652" type="curve"/>
			<point x="243" y="642" type="line"/>
			<point x="253" y="679"/>
			<point x="282" y="712"/>
			<point x="330" y="730" type="curve"/>
			<point x="324" y="746" type="line"/>
			<point x="267" y="730"/>
			<point x="217" y="680"/>
		</contour>
		<component base="g"/>
	</outline>
</glyph>
<glyph name="Lcaron" format="1">
	<unicode hex="013D"/>
	<advance width="564"/>
	<outline>
		<contour>
			<point x="454" y="744" type="curve" smooth="yes"/>
			<point x="447" y="744"/>
			<point x="441" y="742"/>
			<point x="436" y="738" type="curve"/>
			<point x="434" y="520" type="line"/>
			<point x="449" y="520" type="line"/>
			<point x="457" y="592" type="line" smooth="yes"/>
			<point x="463" y="649"/>
			<point x="470" y="694"/>
			<point x="470" y="722" type="curve" smooth="yes"/>
			<point x="470" y="737"/>
			<point x="465" y="744"/>
		</contour>
		<component base="L"/>
	</outline>
</glyph>
<glyph name="lcaron" format="1">
	<unicode hex="013E"/>
	<advance width="313"/>
	<outline>
		<contour>
			<point x="283" y="754" type="curve" smooth="yes"/>
			<point x="276" y="754"/>
			<point x="270" y="752"/>
			<point x="265" y="748" type="curve"/>
			<point x="263" y="530" type="line"/>
			<point x="278" y="530" type="line"/>
			<point x="286" y="602" type="line" smooth="yes"/>
			<point x="292" y="659"/>
			<point x="299" y="704"/>
			<point x="299" y="732" type="curve" smooth="yes"/>
			<point x="299" y="747"/>
			<point x="294" y="754"/>
		</contour>
		<component base="l"/>
	</outline>
</glyph>
<glyph name="Eng" format="2">
	<unicode hex="014A"/>
	<advance width="732"/>
	<outline>
		<contour>
			<point x="48" y="0" type="line"/>
			<point x="276" y="0" type="line"/>
			<point x="276" y="20" type="line"/>
			<point x="159" y="27" type="line"/>
			<point x="145" y="27" type="line"/>
			<point x="48" y="20" type="line"/>
		</contour>
		<contour>
			<point x="578" y="0" type="line"/>
			<point x="587" y="0" type="line"/>
			<point x="587" y="34" type="line"/>
			<point x="155" y="677" type="line"/>
			<point x="38" y="677" type="line"/>
			<point x="38" y="657" type="line"/>
			<point x="161" y="652" type="line"/>
			<point x="130" y="663" type="line"/>
		</contour>
		<contour>
			<point x="139" y="0" type="line"/>
			<point x="163" y="0" type="line"/>
			<point x="163" y="652" type="line"/>
			<point x="139" y="677" type="line"/>
		</contour>
		<contour>
			<point x="466" y="657" type="line"/>
			<point x="583" y="650" type="line"/>
			<point x="597" y="650" type="line"/>
			<point x="694" y="657" type="line"/>
			<point x="694" y="677" type="line"/>
			<point x="466" y="677" type="line"/>
		</contour>
		<contour>
			<point x="602" y="677" type="line"/>
			<point x="578" y="677" type="line"/>
			<point x="578" y="39" type="line"/>
			<point x="576" y="27" type="line"/>
			<point x="576" y="-37"/>
			<point x="526" y="-110"/>
			<point x="450" y="-128" type="curve"/>
			<point x="475" y="-129" type="line"/>
			<point x="458" y="-119" type="line" smooth="yes"/>
			<point x="435" y="-106"/>
			<point x="419" y="-102"/>
			<point x="400" y="-102" type="curve" smooth="yes"/>
			<point x="381" y="-102"/>
			<point x="362" y="-108"/>
			<point x="360" y="-126" type="curve"/>
			<point x="368" y="-141"/>
			<point x="387" y="-147"/>
			<point x="425" y="-147" type="curve" smooth="yes"/>
			<point x="486" y="-147"/>
			<point x="529" y="-120"/>
			<point x="564" y="-72" type="curve" smooth="yes"/>
			<point x="592" y="-33"/>
			<point x="601" y="2"/>
			<point x="601" y="95" type="curve" smooth="yes"/>
		</contour>
	</outline>
</glyph>
<glyph name="oe" format="2">
	<unicode hex="0153"/>
	<advance width="888"/>
	<outline>
		<contour>
			<point x="269" y="463" type="curve" smooth="yes"/>
			<point x="380" y="463"/>
			<point x="454" y="372"/>
			<point x="454" y="232" type="curve" smooth="yes"/>
			<point x="454" y="92"/>
			<point x="380" y="7"/>
			<point x="269" y="7" type="curve" smooth="yes"/>
			<point x="158" y="7"/>
			<point x="84" y="93"/>
			<point x="84" y="233" type="curve" smooth="yes"/>
			<point x="84" y="373"/>
			<point x="158" y="463"/>
		</contour>
		<contour>
			<point x="476" y="166" type="curve"/>
			<point x="460" y="166" type="line"/>
			<point x="486" y="43"/>
			<point x="578" y="-13"/>
			<point x="668" y="-13" type="curve" smooth="yes"/>
			<point x="735" y="-13"/>
			<point x="798" y="16"/>
			<point x="836" y="66" type="curve"/>
			<point x="825" y="77" type="line"/>
			<point x="787" y="35"/>
			<point x="734" y="13"/>
			<point x="668" y="13" type="curve" smooth="yes"/>
			<point x="575" y="13"/>
			<point x="481" y="79"/>
			<point x="481" y="247" type="curve" smooth="yes"/>
			<point x="481" y="357"/>
			<point x="555" y="463"/>
			<point x="660" y="463" type="curve" smooth="yes"/>
			<point x="760" y="463"/>
			<point x="812" y="385"/>
			<point x="812" y="302" type="curve" smooth="yes"/>
			<point x="812" y="273"/>
			<point x="806" y="263"/>
			<point x="790" y="263" type="curve" smooth="yes"/>
			<point x="465" y="263" type="line"/>
			<point x="465" y="242" type="line"/>
			<point x="834" y="242" type="line"/>
			<point x="840" y="257"/>
			<point x="842" y="275"/>
			<point x="842" y="299" type="curve" smooth="yes"/>
			<point x="842" y="397"/>
			<point x="778" y="483"/>
			<point x="660" y="483" type="curve" smooth="yes"/>
			<point x="569" y="483"/>
			<point x="484" y="414"/>
			<point x="460" y="299" type="curve"/>
			<point x="476" y="299" type="line"/>
			<point x="454" y="426"/>
			<point x="358" y="483"/>
			<point x="269" y="483" type="curve" smooth="yes"/>
			<point x="162" y="483"/>
			<point x="52" y="403"/>
			<point x="52" y="233" type="curve" smooth="yes"/>
			<point x="52" y="63"/>
			<point x="162" y="-13"/>
			<point x="269" y="-13" type="curve" smooth="yes"/>
			<point x="360" y="-13"/>
			<point x="453" y="44"/>
		</contour>
	</outline>
	<anchor name="aboveLC" x="470" y="500"/>
</glyph>
<glyph name="Uogonek" format="2">
	<unicode hex="0172"/>
	<advance width="737"/>
	<outline>
		<contour>
			<point x="50" y="657" type="line"/>
			<point x="157" y="650" type="line"/>
			<point x="171" y="650" type="line"/>
			<point x="288" y="657" type="line"/>
			<point x="288" y="677" type="line"/>
			<point x="50" y="677" type="line"/>
		</contour>
		<contour>
			<point x="382" y="-129" type="curve" smooth="yes"/>
			<point x="382" y="-183"/>
			<point x="423" y="-219"/>
			<point x="478" y="-219" type="curve" smooth="yes"/>
			<point x="516" y="-219"/>
			<point x="546" y="-203"/>
			<point x="563" y="-179" type="curve"/>
			<point x="553" y="-169" type="line"/>
			<point x="529" y="-189"/>
			<point x="511" y="-195"/>
			<point x="487" y="-195" type="curve" smooth="yes"/>
			<point x="442" y="-195"/>
			<point x="410" y="-169"/>
			<point x="410" y="-118" type="curve" smooth="yes"/>
			<point x="410" y="-77"/>
			<point x="438" y="-21"/>
			<point x="501" y="19" type="curve" smooth="yes"/>
			<point x="566" y="59"/>
			<point x="599" y="134"/>
			<point x="599" y="246" type="curve" smooth="yes"/>
			<point x="599" y="677" type="line"/>
			<point x="575" y="677" type="line"/>
			<point x="575" y="272" type="line" smooth="yes"/>
			<point x="575" y="85"/>
			<point x="515" y="13"/>
			<point x="370" y="13" type="curve" smooth="yes"/>
			<point x="254" y="13"/>
			<point x="178" y="78"/>
			<point x="178" y="254" type="curve" smooth="yes"/>
			<point x="178" y="361" type="line" smooth="yes"/>
			<point x="178" y="469"/>
			<point x="178" y="573"/>
			<point x="180" y="677" type="curve"/>
			<point x="146" y="677" type="line"/>
			<point x="148" y="573"/>
			<point x="148" y="467"/>
			<point x="148" y="361" type="curve" smooth="yes"/>
			<point x="148" y="247" type="line" smooth="yes"/>
			<point x="148" y="59"/>
			<point x="234" y="-13"/>
			<point x="370" y="-13" type="curve" smooth="yes"/>
			<point x="409" y="-13"/>
			<point x="442" y="-7"/>
			<point x="471" y="4" type="curve"/>
			<point x="466" y="9" type="line"/>
			<point x="416" y="-27"/>
			<point x="382" y="-77"/>
		</contour>
		<contour>
			<point x="453" y="657" type="line"/>
			<point x="580" y="650" type="line"/>
			<point x="594" y="650" type="line"/>
			<point x="689" y="657" type="line"/>
			<point x="689" y="677" type="line"/>
			<point x="453" y="677" type="line"/>
		</contour>
	</outline>
	<anchor name="aboveUC" x="371" y="682"/>
	<anchor name="belowLC" x="378" y="-22"/>
	<anchor name="hornLC" x="590" y="720"/>
</glyph>
<glyph name="schwa" format="2">
	<unicode hex="0259"/>
	<advance width="491"/>
	<outline>
		<contour>
			<point x="243" y="-13" type="curve" smooth="yes"/>
			<point x="350" y="-13"/>
			<point x="439" y="69"/>
			<point x="439" y="232" type="curve" smooth="yes"/>
			<point x="439" y="407"/>
			<point x="331" y="483"/>
			<point x="223" y="483" type="curve" smooth="yes"/>
			<point x="158" y="483"/>
			<point x="95" y="454"/>
			<point x="55" y="404" type="curve"/>
			<point x="66" y="393" type="line"/>
			<point x="106" y="435"/>
			<point x="159" y="457"/>
			<point x="223" y="457" type="curve" smooth="yes"/>
			<point x="322" y="457"/>
			<point x="407" y="379"/>
			<point x="407" y="232" type="curve" smooth="yes"/>
			<point x="407" y="91"/>
			<point x="343" y="7"/>
			<point x="246" y="7" type="curve" smooth="yes"/>
			<point x="131" y="7"/>
			<point x="70" y="94"/>
			<point x="70" y="189" type="curve" smooth="yes"/>
			<point x="70" y="218"/>
			<point x="76" y="228"/>
			<point x="90" y="228" type="curve" smooth="yes"/>
			<point x="421" y="228" type="line"/>
			<point x="421" y="249" type="line"/>
			<point x="46" y="249" type="line"/>
			<point x="42" y="234"/>
			<point x="40" y="216"/>
			<point x="40" y="189" type="curve" smooth="yes"/>
			<point x="40" y="82"/>
			<point x="113" y="-13"/>
		</contour>
	</outline>
	<anchor name="aboveLC" x="235" y="500"/>
	<anchor name="belowLC" x="233" y="-22"/>
</glyph>
<glyph name="gscript" format="2">
	<unicode hex="0261"/>
	<advance width="540"/>
	<outline>
		<contour>
			<point x="103" y="-197" type="curve"/>
			<point x="131" y="-228" type="line"/>
			<point x="95" y="-142" type="line" smooth="yes"/>
			<point x="90" y="-131"/>
			<point x="83" y="-126"/>
			<point x="74" y="-126" type="curve" smooth="yes"/>
			<point x="62" y="-126"/>
			<point x="54" y="-134"/>
			<point x="54" y="-145" type="curve"/>
			<point x="81" y="-216"/>
			<point x="139" y="-255"/>
			<point x="224" y="-255" type="curve" smooth="yes"/>
			<point x="289" y="-255"/>
			<point x="359" y="-236"/>
			<point x="400" y="-173" type="curve" smooth="yes"/>
			<point x="431" y="-126"/>
			<point x="440" y="-65"/>
			<point x="440" y="105" type="curve" smooth="yes"/>
			<point x="440" y="335" type="line"/>
			<point x="443" y="470" type="line"/>
			<point x="424" y="473" type="line"/>
			<point x="412" y="400" type="line"/>
			<point x="412" y="83" type="line" smooth="yes"/>
			<point x="412" y="-87"/>
			<point x="403" y="-124"/>
			<point x="380" y="-161" type="curve" smooth="yes"/>
			<point x="348" y="-217"/>
			<point x="279" y="-235"/>
			<point x="224" y="-235" type="curve" smooth="yes"/>
			<point x="169" y="-235"/>
			<point x="136" y="-219"/>
		</contour>
		<contour>
			<point x="249" y="-13" type="curve" smooth="yes"/>
			<point x="313" y="-13"/>
			<point x="376" y="12"/>
			<point x="426" y="87" type="curve"/>
			<point x="417" y="102" type="line"/>
			<point x="366" y="36"/>
			<point x="316" y="12"/>
			<point x="252" y="12" type="curve" smooth="yes"/>
			<point x="158" y="12"/>
			<point x="84" y="85"/>
			<point x="84" y="227" type="curve" smooth="yes"/>
			<point x="84" y="385"/>
			<point x="164" y="458"/>
			<point x="264" y="458" type="curve" smooth="yes"/>
			<point x="325" y="458"/>
			<point x="371" y="430"/>
			<point x="417" y="374" type="curve"/>
			<point x="425" y="387" type="line"/>
			<point x="378" y="455"/>
			<point x="317" y="483"/>
			<point x="264" y="483" type="curve" smooth="yes"/>
			<point x="144" y="483"/>
			<point x="52" y="387"/>
			<point x="52" y="227" type="curve" smooth="yes"/>
			<point x="52" y="78"/>
			<point x="132" y="-13"/>
		</contour>
	</outline>
	<anchor name="aboveLC" x="265" y="500"/>
	<anchor name="belowLC" x="238" y="-246"/>
</glyph>
<glyph name="dieresiscmb" format="1">
	<unicode hex="0308"/>
	<outline>
		<contour>
			<point x="94" y="644" type="curve" smooth="yes"/>
			<point x="109" y="644"/>
			<point x="123" y="655"/>
			<point x="123" y="674" type="curve" smooth="yes"/>
			<point x="123" y="692"/>
			<point x="109" y="703"/>
			<point x="94" y="703" type="curve" smooth="yes"/>
			<point x="79" y="703"/>
			<point x="65" y="692"/>
			<point x="65" y="674" type="curve" smooth="yes"/>
			<point x="65" y="655"/>
			<point x="79" y="644"/>
		</contour>
		<contour>
			<point x="-94" y="644" type="curve" smooth="yes"/>
			<point x="-79" y="644"/>
			<point x="-65" y="655"/>
			<point x="-65" y="674" type="curve" smooth="yes"/>
			<point x="-65" y="692"/>
			<point x="-79" y="703"/>
			<point x="-94" y="703" type="curve" smooth="yes"/>
			<point x="-109" y="703"/>
			<point x="-123" y="692"/>
			<point x="-123" y="674" type="curve" smooth="yes"/>
			<point x="-123" y="655"/>
			<point x="-109" y="644"/>
		</contour>
		<contour>
			<point name="_aboveLC" x="0" y="505" type="move"/>
		</contour>
		<contour>
			<point name="aboveLC" x="0" y="681" type="move"/>
		</contour>
	</outline>
</glyph>
<glyph name="horncmb" format="2">
	<unicode hex="031B"/>
	<outline>
		<contour>
			<point x="0" y="401" type="line"/>
			<point x="104" y="411"/>
			<point x="133" y="476"/>
			<point x="133" y="529" type="curve" smooth="yes"/>
			<point x="133" y="560"/>
			<point x="124" y="581"/>
			<point x="117" y="592" type="curve"/>
			<point x="115" y="593"/>
			<point x="111" y="594"/>
			<point x="106" y="594" type="curve" smooth="yes"/>
			<point x="95" y="594"/>
			<point x="86" y="587"/>
			<point x="86" y="576" type="curve" smooth="yes"/>
			<point x="86" y="561"/>
			<point x="103" y="547"/>
			<point x="103" y="509" type="curve" smooth="yes"/>
			<point x="103" y="470"/>
			<point x="79" y="426"/>
			<point x="-3" y="418" type="curve"/>
		</contour>
	</outline>
	<anchor name="_hornLC" x="0" y="478"/>
</glyph>
<glyph name="Delta" format="1">
	<unicode hex="0394"/>
	<unicode hex="2206"/>
	<advance width="578"/>
	<outline>
		<contour>
			<point x="40" y="0" type="line"/>
			<point x="60" y="0" type="line"/>
			<point x="290" y="667" type="line"/>
			<point x="273" y="657" type="line"/>
			<point x="510" y="0" type="line"/>
			<point x="538" y="0" type="line"/>
			<point x="538" y="20" type="line"/>
			<point x="294" y="684" type="line"/>
			<point x="274" y="684" type="line"/>
			<point x="40" y="20" type="line"/>
		</contour>
		<contour>
			<point x="50" y="0" type="line"/>
			<point x="524" y="0" type="line"/>
			<point x="524" y="28" type="line"/>
			<point x="50" y="28" type="line"/>
		</contour>
	</outline>
</glyph>
<glyph name="Theta" format="2">
	<unicode hex="0398"/>
	<advance width="706"/>
	<outline>
		<contour>
			<point x="354" y="-13" type="curve" smooth="yes"/>
			<point x="519" y="-13"/>
			<point x="644" y="126"/>
			<point x="644" y="338" type="curve" smooth="yes"/>
			<point x="644" y="551"/>
			<point x="519" y="690"/>
			<point x="354" y="690" type="curve" smooth="yes"/>
			<point x="189" y="690"/>
			<point x="64" y="551"/>
			<point x="64" y="338" type="curve" smooth="yes"/>
			<point x="64" y="126"/>
			<point x="189" y="-13"/>
		</contour>
		<contour>
			<point x="354" y="9" type="curve" smooth="yes"/>
			<point x="194" y="9"/>
			<point x="96" y="158"/>
			<point x="96" y="338" type="curve" smooth="yes"/>
			<point x="96" y="519"/>
			<point x="194" y="668"/>
			<point x="354" y="668" type="curve" smooth="yes"/>
			<point x="514" y="668"/>
			<point x="612" y="519"/>
			<point x="612" y="338" type="curve" smooth="yes"/>
			<point x="612" y="158"/>
			<point x="514" y="9"/>
		</contour>
		<contour>
			<point x="478" y="325" type="line"/>
			<point x="488" y="237" type="line"/>
			<point x="507" y="237" type="line"/>
			<point x="507" y="433" type="line"/>
			<point x="488" y="433" type="line"/>
			<point x="478" y="345" type="line"/>
		</contour>
		<contour>
			<point x="228" y="325" type="line"/>
			<point x="228" y="345" type="line"/>
			<point x="218" y="433" type="line"/>
			<point x="199" y="433" type="line"/>
			<point x="199" y="237" type="line"/>
			<point x="218" y="237" type="line"/>
		</contour>
		<contour>
			<point x="219" y="348" type="line"/>
			<point x="219" y="322" type="line"/>
			<point x="487" y="322" type="line"/>
			<point x="487" y="348" type="line"/>
		</contour>
	</outline>
</glyph>
<glyph name="Lambda" format="1">
  <advance width="652"/>
  <unicode hex="039B"/>
  <outline>
    <contour>
      <point x="535" y="27" type="line"/>
      <point x="412" y="20" type="line"/>
      <point x="412" y="0" type="line"/>
      <point x="650" y="0" type="line"/>
      <point x="650" y="20" type="line"/>
      <point x="545" y="27" type="line"/>
    </contour>
    <contour>
      <point x="108" y="27" type="line"/>
      <point x="12" y="20" type="line"/>
      <point x="12" y="0" type="line"/>
      <point x="240" y="0" type="line"/>
      <point x="240" y="20" type="line"/>
      <point x="122" y="27" type="line"/>
    </contour>
    <contour>
      <point x="314" y="684" type="line"/>
      <point x="93" y="0" type="line"/>
      <point x="119" y="0" type="line"/>
      <point x="327" y="660" type="line"/>
      <point x="315" y="660" type="line"/>
      <point x="533" y="0" type="line"/>
      <point x="564" y="0" type="line"/>
      <point x="334" y="684" type="line"/>
    </contour>
  </outline>
</glyph>
<glyph name="Xi" format="1">
	<unicode hex="039E"/>
	<advance width="614"/>
	<outline>
		<contour>
			<point x="442" y="332" type="line"/>
			<point x="452" y="244" type="line"/>
			<point x="471" y="244" type="line"/>
			<point x="471" y="440" type="line"/>
			<point x="452" y="440" type="line"/>
			<point x="442" y="352" type="line"/>
		</contour>
		<contour>
			<point x="172" y="332" type="line"/>
			<point x="172" y="352" type="line"/>
			<point x="162" y="440" type="line"/>
			<point x="143" y="440" type="line"/>
			<point x="143" y="244" type="line"/>
			<point x="162" y="244" type="line"/>
		</contour>
		<contour>
			<point x="163" y="356" type="line"/>
			<point x="163" y="328" type="line"/>
			<point x="451" y="328" type="line"/>
			<point x="451" y="356" type="line"/>
		</contour>
		<contour>
			<point x="69" y="677" type="line"/>
			<point x="59" y="524" type="line"/>
			<point x="83" y="524" type="line"/>
			<point x="102" y="677" type="line"/>
			<point x="88" y="649" type="line"/>
			<point x="526" y="649" type="line"/>
			<point x="512" y="677" type="line"/>
			<point x="531" y="524" type="line"/>
			<point x="555" y="524" type="line"/>
			<point x="545" y="677" type="line"/>
		</contour>
		<contour>
			<point x="559" y="0" type="line"/>
			<point x="569" y="153" type="line"/>
			<point x="545" y="153" type="line"/>
			<point x="526" y="0" type="line"/>
			<point x="540" y="28" type="line"/>
			<point x="74" y="28" type="line"/>
			<point x="88" y="0" type="line"/>
			<point x="69" y="153" type="line"/>
			<point x="45" y="153" type="line"/>
			<point x="55" y="0" type="line"/>
		</contour>
	</outline>
</glyph>
<glyph name="Omega" format="1">
	<unicode hex="03A9"/>
	<unicode hex="2126"/>
	<advance width="754"/>
	<outline>
		<contour>
			<point x="98" y="153" type="line"/>
			<point x="74" y="153" type="line"/>
			<point x="94" y="0" type="line"/>
			<point x="315" y="0" type="line"/>
			<point x="315" y="9" type="line"/>
			<point x="302" y="28" type="line"/>
			<point x="113" y="28" type="line"/>
			<point x="127" y="0" type="line"/>
		</contour>
		<contour>
			<point x="668" y="153" type="line"/>
			<point x="639" y="0" type="line"/>
			<point x="653" y="28" type="line"/>
			<point x="454" y="28" type="line"/>
			<point x="441" y="9" type="line"/>
			<point x="441" y="0" type="line"/>
			<point x="672" y="0" type="line"/>
			<point x="692" y="153" type="line"/>
		</contour>
		<contour>
			<point x="378" y="668" type="curve" smooth="yes"/>
			<point x="514" y="668"/>
			<point x="634" y="581"/>
			<point x="634" y="394" type="curve" smooth="yes"/>
			<point x="634" y="246"/>
			<point x="571" y="164"/>
			<point x="436" y="105" type="curve"/>
			<point x="441" y="0" type="line"/>
			<point x="466" y="0" type="line"/>
			<point x="461" y="90" type="line"/>
			<point x="581" y="142"/>
			<point x="666" y="231"/>
			<point x="666" y="393" type="curve" smooth="yes"/>
			<point x="666" y="617"/>
			<point x="499" y="690"/>
			<point x="378" y="690" type="curve" smooth="yes"/>
			<point x="257" y="690"/>
			<point x="90" y="617"/>
			<point x="90" y="393" type="curve" smooth="yes"/>
			<point x="90" y="221"/>
			<point x="174" y="142"/>
			<point x="295" y="90" type="curve"/>
			<point x="290" y="0" type="line"/>
			<point x="315" y="0" type="line"/>
			<point x="320" y="105" type="line"/>
			<point x="185" y="164"/>
			<point x="122" y="246"/>
			<point x="122" y="394" type="curve" smooth="yes"/>
			<point x="122" y="581"/>
			<point x="242" y="668"/>
		</contour>
	</outline>
</glyph>
<glyph name="alpha" format="1">
  <advance width="535"/>
  <unicode hex="03B1"/>
  <outline>
    <contour>
      <point x="234" y="-13" type="curve" smooth="yes"/>
      <point x="295" y="-13"/>
      <point x="370" y="28"/>
      <point x="396" y="139" type="curve"/>
      <point x="383" y="109" type="line"/>
      <point x="382" y="21"/>
      <point x="403" y="-13"/>
      <point x="450" y="-13" type="curve" smooth="yes"/>
      <point x="475" y="-13"/>
      <point x="493" y="-1"/>
      <point x="507" y="17" type="curve"/>
      <point x="497" y="31" type="line"/>
      <point x="483" y="21"/>
      <point x="474" y="16"/>
      <point x="456" y="16" type="curve" smooth="yes"/>
      <point x="426" y="16"/>
      <point x="406" y="34"/>
      <point x="406" y="107" type="curve" smooth="yes"/>
      <point x="406" y="163"/>
      <point x="426" y="353"/>
      <point x="441" y="474" type="curve"/>
      <point x="434" y="478" type="line"/>
      <point x="415" y="469" type="line"/>
      <point x="403" y="358" type="line"/>
      <point x="390" y="190" type="line" smooth="yes"/>
      <point x="380" y="60"/>
      <point x="298" y="10"/>
      <point x="232" y="10" type="curve"/>
      <point x="149" y="10"/>
      <point x="82" y="79"/>
      <point x="82" y="216" type="curve"/>
      <point x="82" y="378"/>
      <point x="145" y="461"/>
      <point x="245" y="461" type="curve" smooth="yes"/>
      <point x="316" y="461"/>
      <point x="384" y="410"/>
      <point x="406" y="257" type="curve"/>
      <point x="418" y="304" type="line"/>
      <point x="388" y="433"/>
      <point x="327" y="483"/>
      <point x="244" y="483" type="curve" smooth="yes"/>
      <point x="149" y="483"/>
      <point x="52" y="407"/>
      <point x="52" y="218" type="curve" smooth="yes"/>
      <point x="52" y="56"/>
      <point x="136" y="-13"/>
    </contour>
    <contour>
      <point x="259.0" y="500.0" type="move" name="aboveLC"/>
    </contour>
    <contour>
      <point x="239.0" y="-22.0" type="move" name="belowLC"/>
    </contour>
  </outline>
</glyph>
<glyph name="beta" format="1">
	<unicode hex="03B2"/>
	<advance width="562"/>
	<outline>
		<contour>
			<point x="110" y="-182" type="line"/>
			<point x="120" y="-188" type="line"/>
			<point x="142" y="-180" type="line"/>
			<point x="141" y="54" type="line"/>
			<point x="143" y="59" type="line"/>
			<point x="143" y="497" type="line" smooth="yes"/>
			<point x="143" y="652"/>
			<point x="199" y="728"/>
			<point x="306" y="728" type="curve" smooth="yes"/>
			<point x="387" y="728"/>
			<point x="441" y="682"/>
			<point x="441" y="586" type="curve" smooth="yes"/>
			<point x="441" y="486"/>
			<point x="378" y="427"/>
			<point x="225" y="389" type="curve"/>
			<point x="229" y="368" type="line"/>
			<point x="410" y="384"/>
			<point x="480" y="304"/>
			<point x="480" y="187" type="curve" smooth="yes"/>
			<point x="480" y="76"/>
			<point x="406" y="5"/>
			<point x="310" y="5" type="curve" smooth="yes"/>
			<point x="235" y="5"/>
			<point x="183" y="27"/>
			<point x="129" y="86" type="curve"/>
			<point x="125" y="74" type="line"/>
			<point x="164" y="10"/>
			<point x="232" y="-23"/>
			<point x="311" y="-23" type="curve" smooth="yes"/>
			<point x="414" y="-23"/>
			<point x="510" y="52"/>
			<point x="510" y="189" type="curve" smooth="yes"/>
			<point x="510" y="315"/>
			<point x="431" y="396"/>
			<point x="255" y="388" type="curve"/>
			<point x="256" y="380" type="line"/>
			<point x="396" y="400"/>
			<point x="471" y="482"/>
			<point x="471" y="583" type="curve" smooth="yes"/>
			<point x="471" y="696"/>
			<point x="399" y="748"/>
			<point x="308" y="748" type="curve" smooth="yes"/>
			<point x="181" y="748"/>
			<point x="115" y="662"/>
			<point x="115" y="494" type="curve" smooth="yes"/>
			<point x="115" y="-5" type="line"/>
		</contour>
	</outline>
</glyph>
<glyph name="delta" format="1">
	<unicode hex="03B4"/>
	<advance width="503"/>
	<outline>
		<contour>
			<point x="42" y="193" type="curve" smooth="yes"/>
			<point x="42" y="70"/>
			<point x="121" y="-13"/>
			<point x="243" y="-13" type="curve" smooth="yes"/>
			<point x="361" y="-13"/>
			<point x="451" y="67"/>
			<point x="451" y="204" type="curve" smooth="yes"/>
			<point x="451" y="311"/>
			<point x="401" y="379"/>
			<point x="278" y="453" type="curve" smooth="yes"/>
			<point x="149" y="530"/>
			<point x="131" y="568"/>
			<point x="131" y="620" type="curve" smooth="yes"/>
			<point x="131" y="687"/>
			<point x="183" y="727"/>
			<point x="271" y="728" type="curve" smooth="yes"/>
			<point x="307" y="728"/>
			<point x="345" y="721"/>
			<point x="376" y="701" type="curve"/>
			<point x="371" y="717" type="line"/>
			<point x="335" y="726" type="line"/>
			<point x="382" y="681" type="line" smooth="yes"/>
			<point x="393" y="670"/>
			<point x="402" y="663"/>
			<point x="415" y="663" type="curve" smooth="yes"/>
			<point x="430" y="663"/>
			<point x="439" y="674"/>
			<point x="436" y="691" type="curve"/>
			<point x="393" y="730"/>
			<point x="331" y="748"/>
			<point x="270" y="748" type="curve" smooth="yes"/>
			<point x="169" y="748"/>
			<point x="105" y="697"/>
			<point x="105" y="619" type="curve" smooth="yes"/>
			<point x="105" y="555"/>
			<point x="134" y="510"/>
			<point x="265" y="436" type="curve" smooth="yes"/>
			<point x="354" y="385"/>
			<point x="422" y="323"/>
			<point x="422" y="203" type="curve" smooth="yes"/>
			<point x="422" y="91"/>
			<point x="355" y="7"/>
			<point x="243" y="7" type="curve" smooth="yes"/>
			<point x="141" y="7"/>
			<point x="72" y="78"/>
			<point x="72" y="192" type="curve" smooth="yes"/>
			<point x="72" y="299"/>
			<point x="120" y="392"/>
			<point x="291" y="433" type="curve"/>
			<point x="273" y="447" type="line"/>
			<point x="142" y="418"/>
			<point x="42" y="339"/>
		</contour>
	</outline>
</glyph>
<glyph name="zeta" format="2">
	<unicode hex="03B6"/>
	<advance width="397"/>
	<outline>
		<contour>
			<point x="351" y="-119"/>
			<point x="339" y="-155"/>
			<point x="315" y="-205" type="curve"/>
			<point x="339" y="-205" type="line"/>
			<point x="363" y="-164"/>
			<point x="377" y="-128"/>
			<point x="377" y="-90" type="curve" smooth="yes"/>
			<point x="377" y="-35"/>
			<point x="361" y="14"/>
			<point x="245" y="40" type="curve" smooth="yes"/>
			<point x="124" y="67"/>
			<point x="80" y="111"/>
			<point x="80" y="187" type="curve" smooth="yes"/>
			<point x="81" y="304"/>
			<point x="157" y="430"/>
			<point x="392" y="723" type="curve"/>
			<point x="389" y="738" type="line"/>
			<point x="90" y="745" type="line"/>
			<point x="90" y="718" type="line"/>
			<point x="376" y="718" type="line"/>
			<point x="367" y="725" type="line"/>
			<point x="112" y="415"/>
			<point x="51" y="278"/>
			<point x="51" y="184" type="curve" smooth="yes"/>
			<point x="51" y="112"/>
			<point x="83" y="47"/>
			<point x="233" y="14" type="curve" smooth="yes"/>
			<point x="343" y="-10"/>
			<point x="351" y="-53"/>
			<point x="351" y="-92" type="curve" smooth="yes"/>
		</contour>
	</outline>
</glyph>
<glyph name="xi" format="1">
	<unicode hex="03BE"/>
	<advance width="420"/>
	<outline>
		<contour>
			<point x="55" y="193" type="curve" smooth="yes"/>
			<point x="55" y="100"/>
			<point x="105" y="44"/>
			<point x="238" y="14" type="curve" smooth="yes"/>
			<point x="348" y="-11"/>
			<point x="356" y="-53"/>
			<point x="356" y="-92" type="curve" smooth="yes"/>
			<point x="356" y="-119"/>
			<point x="349" y="-155"/>
			<point x="325" y="-205" type="curve"/>
			<point x="346" y="-205" type="line"/>
			<point x="368" y="-161"/>
			<point x="382" y="-130"/>
			<point x="382" y="-90" type="curve" smooth="yes"/>
			<point x="382" y="-35"/>
			<point x="366" y="14"/>
			<point x="250" y="40" type="curve" smooth="yes"/>
			<point x="124" y="68"/>
			<point x="85" y="114"/>
			<point x="85" y="195" type="curve" smooth="yes"/>
			<point x="85" y="290"/>
			<point x="151" y="378"/>
			<point x="312" y="378" type="curve"/>
			<point x="327" y="378"/>
			<point x="349" y="377"/>
			<point x="371" y="377" type="curve"/>
			<point x="371" y="410" type="line"/>
			<point x="352" y="409"/>
			<point x="324" y="409"/>
			<point x="313" y="409" type="curve" smooth="yes"/>
			<point x="176" y="409"/>
			<point x="121" y="459"/>
			<point x="121" y="545" type="curve" smooth="yes"/>
			<point x="121" y="633"/>
			<point x="199" y="708"/>
			<point x="400" y="718" type="curve"/>
			<point x="400" y="738" type="line"/>
			<point x="52" y="745" type="line"/>
			<point x="52" y="718" type="line"/>
			<point x="291" y="718" type="line"/>
			<point x="301" y="724" type="line"/>
			<point x="184" y="710"/>
			<point x="95" y="642"/>
			<point x="95" y="539" type="curve" smooth="yes"/>
			<point x="95" y="463"/>
			<point x="142" y="408"/>
			<point x="251" y="387" type="curve"/>
			<point x="261" y="395" type="line"/>
			<point x="122" y="379"/>
			<point x="55" y="297"/>
		</contour>
	</outline>
</glyph>
<glyph name="sigma.end" format="1">
	<unicode hex="03C2"/>
	<advance width="451"/>
	<outline>
		<contour>
			<point x="52" y="226" type="curve" smooth="yes"/>
			<point x="52" y="125"/>
			<point x="84" y="53"/>
			<point x="234" y="14" type="curve" smooth="yes"/>
			<point x="342" y="-14"/>
			<point x="352" y="-53"/>
			<point x="352" y="-92" type="curve" smooth="yes"/>
			<point x="352" y="-119"/>
			<point x="345" y="-155"/>
			<point x="321" y="-205" type="curve"/>
			<point x="342" y="-205" type="line"/>
			<point x="364" y="-161"/>
			<point x="378" y="-130"/>
			<point x="378" y="-90" type="curve" smooth="yes"/>
			<point x="378" y="-35"/>
			<point x="360" y="9"/>
			<point x="246" y="40" type="curve" smooth="yes"/>
			<point x="125" y="73"/>
			<point x="81" y="121"/>
			<point x="81" y="227" type="curve" smooth="yes"/>
			<point x="81" y="383"/>
			<point x="160" y="463"/>
			<point x="285" y="463" type="curve" smooth="yes"/>
			<point x="322" y="463"/>
			<point x="348" y="448"/>
			<point x="357" y="446" type="curve"/>
			<point x="302" y="471" type="line"/>
			<point x="352" y="422" type="line" smooth="yes"/>
			<point x="363" y="411"/>
			<point x="369" y="407"/>
			<point x="383" y="407" type="curve" smooth="yes"/>
			<point x="395" y="407"/>
			<point x="410" y="416"/>
			<point x="404" y="437" type="curve"/>
			<point x="370" y="471"/>
			<point x="337" y="483"/>
			<point x="284" y="483" type="curve" smooth="yes"/>
			<point x="158" y="483"/>
			<point x="52" y="403"/>
		</contour>
	</outline>
</glyph>
<glyph name="omega" format="1">
	<unicode hex="03C9"/>
	<advance width="709"/>
	<outline>
		<contour>
			<point x="215" y="-13" type="curve" smooth="yes"/>
			<point x="295" y="-13"/>
			<point x="352" y="45"/>
			<point x="361" y="112" type="curve"/>
			<point x="348" y="112" type="line"/>
			<point x="366" y="28"/>
			<point x="410" y="-13"/>
			<point x="491" y="-13" type="curve" smooth="yes"/>
			<point x="567" y="-13"/>
			<point x="657" y="32"/>
			<point x="657" y="206" type="curve" smooth="yes"/>
			<point x="657" y="327"/>
			<point x="613" y="417"/>
			<point x="518" y="471" type="curve"/>
			<point x="507" y="456" type="line"/>
			<point x="592" y="400"/>
			<point x="627" y="320"/>
			<point x="627" y="201" type="curve" smooth="yes"/>
			<point x="627" y="54"/>
			<point x="558" y="8"/>
			<point x="494" y="8" type="curve" smooth="yes"/>
			<point x="407" y="8"/>
			<point x="366" y="59"/>
			<point x="366" y="152" type="curve" smooth="yes"/>
			<point x="366" y="203"/>
			<point x="372" y="229"/>
			<point x="375" y="307" type="curve"/>
			<point x="369" y="311" type="line"/>
			<point x="339" y="306" type="line"/>
			<point x="339" y="230"/>
			<point x="343" y="203"/>
			<point x="343" y="145" type="curve" smooth="yes"/>
			<point x="343" y="60"/>
			<point x="290" y="8"/>
			<point x="215" y="8" type="curve" smooth="yes"/>
			<point x="144" y="8"/>
			<point x="82" y="58"/>
			<point x="82" y="200" type="curve" smooth="yes"/>
			<point x="82" y="319"/>
			<point x="123" y="402"/>
			<point x="212" y="456" type="curve"/>
			<point x="201" y="471" type="line"/>
			<point x="106" y="417"/>
			<point x="52" y="321"/>
			<point x="52" y="200" type="curve" smooth="yes"/>
			<point x="52" y="48"/>
			<point x="131" y="-13"/>
		</contour>
		<contour>
			<point name="aboveLC" x="360" y="500" type="move"/>
		</contour>
		<contour>
			<point name="belowLC" x="374" y="-22" type="move"/>
		</contour>
	</outline>
</glyph>
<glyph name="koppa" format="1">
	<unicode hex="03D9"/>
	<advance width="526"/>
	<outline>
		<contour>
			<point x="254" y="6" type="line"/>
			<point x="245" y="-192" type="line"/>
			<point x="255" y="-198" type="line"/>
			<point x="279" y="-190" type="line"/>
			<point x="276" y="6" type="line"/>
		</contour>
		<component base="omicron"/>
		<contour>
			<point name="aboveLC" x="263" y="500" type="move"/>
		</contour>
	</outline>
</glyph>
<glyph name="Tshe" format="2">
	<unicode hex="040B"/>
	<advance width="768"/>
	<outline>
		<contour>
			<point x="20" y="514" type="line"/>
			<point x="44" y="514" type="line"/>
			<point x="63" y="677" type="line"/>
			<point x="49" y="655" type="line"/>
			<point x="555" y="655" type="line"/>
			<point x="541" y="677" type="line"/>
			<point x="560" y="514" type="line"/>
			<point x="584" y="514" type="line"/>
			<point x="574" y="677" type="line"/>
			<point x="30" y="677" type="line"/>
		</contour>
		<contour>
			<point x="163" y="0" type="line"/>
			<point x="419" y="0" type="line"/>
			<point x="419" y="20" type="line"/>
			<point x="302" y="27" type="line"/>
			<point x="290" y="27" type="line"/>
			<point x="163" y="20" type="line"/>
		</contour>
		<contour>
			<point x="280" y="0" type="curve"/>
			<point x="314" y="0" type="line"/>
			<point x="312" y="102"/>
			<point x="312" y="206"/>
			<point x="312" y="310" type="curve" smooth="yes"/>
			<point x="312" y="361" type="line" smooth="yes"/>
			<point x="312" y="471"/>
			<point x="312" y="575"/>
			<point x="314" y="677" type="curve"/>
			<point x="280" y="677" type="line"/>
			<point x="282" y="575"/>
			<point x="282" y="471"/>
			<point x="282" y="367" type="curve" smooth="yes"/>
			<point x="282" y="310" type="line" smooth="yes"/>
			<point x="282" y="206"/>
			<point x="282" y="102"/>
		</contour>
		<contour>
			<point x="618" y="0" type="curve"/>
			<point x="648" y="0" type="line"/>
			<point x="648" y="196" type="line" smooth="yes"/>
			<point x="648" y="322"/>
			<point x="570" y="378"/>
			<point x="453" y="378" type="curve" smooth="yes"/>
			<point x="381" y="378"/>
			<point x="343" y="376"/>
			<point x="298" y="367" type="curve"/>
			<point x="298" y="347" type="line"/>
			<point x="341" y="357"/>
			<point x="387" y="358"/>
			<point x="445" y="358" type="curve" smooth="yes"/>
			<point x="553" y="358"/>
			<point x="620" y="309"/>
			<point x="620" y="192" type="curve" smooth="yes"/>
			<point x="620" y="139"/>
			<point x="619" y="65"/>
		</contour>
		<contour>
			<point x="629" y="0" type="line"/>
			<point x="731" y="0" type="line"/>
			<point x="731" y="20" type="line"/>
			<point x="643" y="27" type="line"/>
			<point x="629" y="27" type="line"/>
		</contour>
	</outline>
</glyph>
<glyph name="Zhe" format="2">
	<unicode hex="0416"/>
	<advance width="922"/>
	<outline>
		<contour>
			<point x="337" y="0" type="line"/>
			<point x="585" y="0" type="line"/>
			<point x="585" y="20" type="line"/>
			<point x="468" y="27" type="line"/>
			<point x="454" y="27" type="line"/>
			<point x="337" y="20" type="line"/>
		</contour>
		<contour>
			<point x="337" y="657" type="line"/>
			<point x="454" y="650" type="line"/>
			<point x="468" y="650" type="line"/>
			<point x="585" y="657" type="line"/>
			<point x="585" y="677" type="line"/>
			<point x="337" y="677" type="line"/>
		</contour>
		<contour>
			<point x="445" y="0" type="curve"/>
			<point x="477" y="0" type="line"/>
			<point x="475" y="102"/>
			<point x="475" y="206"/>
			<point x="475" y="338" type="curve" smooth="yes"/>
			<point x="475" y="347" type="line" smooth="yes"/>
			<point x="475" y="471"/>
			<point x="475" y="575"/>
			<point x="477" y="677" type="curve"/>
			<point x="445" y="677" type="line"/>
			<point x="447" y="575"/>
			<point x="447" y="471"/>
			<point x="447" y="347" type="curve" smooth="yes"/>
			<point x="447" y="338" type="line" smooth="yes"/>
			<point x="447" y="206"/>
			<point x="447" y="102"/>
		</contour>
		<contour>
			<point x="773" y="34" type="line" smooth="yes"/>
			<point x="785" y="3"/>
			<point x="799" y="-5"/>
			<point x="853" y="-5" type="curve" smooth="yes"/>
			<point x="882" y="-5"/>
			<point x="903" y="-2"/>
			<point x="919" y="0" type="curve"/>
			<point x="919" y="18" type="line"/>
			<point x="794" y="25" type="line"/>
			<point x="812" y="17" type="line"/>
			<point x="731" y="220" type="line" smooth="yes"/>
			<point x="708" y="279"/>
			<point x="663" y="343"/>
			<point x="565" y="350" type="curve"/>
			<point x="557" y="335" type="line"/>
			<point x="632" y="346"/>
			<point x="654" y="367"/>
			<point x="722" y="514" type="curve" smooth="yes"/>
			<point x="752" y="578"/>
			<point x="774" y="612"/>
			<point x="812" y="658" type="curve"/>
			<point x="783" y="646" type="line"/>
			<point x="815" y="643"/>
			<point x="836" y="638"/>
			<point x="853" y="638" type="curve" smooth="yes"/>
			<point x="877" y="638"/>
			<point x="887" y="649"/>
			<point x="887" y="663" type="curve" smooth="yes"/>
			<point x="887" y="677"/>
			<point x="876" y="688"/>
			<point x="859" y="691" type="curve"/>
			<point x="797" y="689"/>
			<point x="763" y="651"/>
			<point x="702" y="521" type="curve" smooth="yes"/>
			<point x="634" y="377"/>
			<point x="612" y="353"/>
			<point x="534" y="353" type="curve" smooth="yes"/>
			<point x="461" y="353" type="line"/>
			<point x="461" y="333" type="line"/>
			<point x="532" y="333" type="line" smooth="yes"/>
			<point x="624" y="333"/>
			<point x="668" y="303"/>
			<point x="704" y="210" type="curve" smooth="yes"/>
		</contour>
		<contour>
			<point x="149" y="34" type="curve" smooth="yes"/>
			<point x="218" y="210" type="line" smooth="yes"/>
			<point x="254" y="303"/>
			<point x="298" y="333"/>
			<point x="390" y="333" type="curve" smooth="yes"/>
			<point x="461" y="333" type="line"/>
			<point x="461" y="353" type="line"/>
			<point x="388" y="353" type="line" smooth="yes"/>
			<point x="310" y="353"/>
			<point x="288" y="377"/>
			<point x="220" y="521" type="curve" smooth="yes"/>
			<point x="159" y="651"/>
			<point x="125" y="689"/>
			<point x="63" y="691" type="curve"/>
			<point x="46" y="688"/>
			<point x="35" y="677"/>
			<point x="35" y="663" type="curve" smooth="yes"/>
			<point x="35" y="649"/>
			<point x="45" y="638"/>
			<point x="69" y="638" type="curve" smooth="yes"/>
			<point x="86" y="638"/>
			<point x="107" y="643"/>
			<point x="139" y="646" type="curve"/>
			<point x="110" y="658" type="line"/>
			<point x="148" y="612"/>
			<point x="170" y="578"/>
			<point x="200" y="514" type="curve" smooth="yes"/>
			<point x="268" y="367"/>
			<point x="290" y="346"/>
			<point x="365" y="335" type="curve"/>
			<point x="357" y="350" type="line"/>
			<point x="259" y="343"/>
			<point x="214" y="279"/>
			<point x="191" y="220" type="curve" smooth="yes"/>
			<point x="110" y="17" type="line"/>
			<point x="128" y="25" type="line"/>
			<point x="3" y="18" type="line"/>
			<point x="3" y="0" type="line"/>
			<point x="19" y="-2"/>
			<point x="40" y="-5"/>
			<point x="69" y="-5" type="curve" smooth="yes"/>
			<point x="122" y="-5"/>
			<point x="136" y="2"/>
		</contour>
	</outline>
	<anchor name="aboveUC" x="462" y="682"/>
</glyph>
<glyph name="Ucyr" format="2">
	<unicode hex="0423"/>
	<advance width="642"/>
	<outline>
		<contour>
			<point x="0" y="657" type="line"/>
			<point x="82" y="650" type="line"/>
			<point x="96" y="650" type="line"/>
			<point x="208" y="657" type="line"/>
			<point x="208" y="677" type="line"/>
			<point x="0" y="677" type="line"/>
		</contour>
		<contour>
			<point x="306" y="106" type="line"/>
			<point x="320" y="137" type="line"/>
			<point x="92" y="677" type="line"/>
			<point x="58" y="677" type="line"/>
		</contour>
		<contour>
			<point x="97" y="-18" type="curve"/>
			<point x="101" y="-43"/>
			<point x="123" y="-53"/>
			<point x="149" y="-53" type="curve" smooth="yes"/>
			<point x="215" y="-53"/>
			<point x="274" y="4"/>
			<point x="342" y="165" type="curve" smooth="yes"/>
			<point x="560" y="677" type="line"/>
			<point x="531" y="677" type="line"/>
			<point x="311" y="145" type="line" smooth="yes"/>
			<point x="275" y="57"/>
			<point x="218" y="-17"/>
			<point x="162" y="-28" type="curve"/>
			<point x="177" y="-41" type="line"/>
			<point x="204" y="-30" type="line"/>
			<point x="172" y="0"/>
			<point x="157" y="6"/>
			<point x="137" y="6" type="curve" smooth="yes"/>
			<point x="119" y="6"/>
			<point x="103" y="-2"/>
		</contour>
		<contour>
			<point x="419" y="657" type="line"/>
			<point x="525" y="650" type="line"/>
			<point x="539" y="650" type="line"/>
			<point x="632" y="657" type="line"/>
			<point x="632" y="677" type="line"/>
			<point x="419" y="677" type="line"/>
		</contour>
	</outline>
	<anchor name="aboveUC" x="317" y="682"/>
</glyph>
<glyph name="ze" format="2">
	<unicode hex="0437"/>
	<advance width="412"/>
	<outline>
		<contour>
			<point x="75" y="44" type="curve"/>
			<point x="103" y="10" type="line"/>
			<point x="81" y="78" type="line" smooth="yes"/>
			<point x="77" y="92"/>
			<point x="70" y="98"/>
			<point x="58" y="99" type="curve" smooth="yes"/>
			<point x="47" y="100"/>
			<point x="39" y="94"/>
			<point x="35" y="81" type="curve"/>
			<point x="58" y="15"/>
			<point x="121" y="-13"/>
			<point x="195" y="-13" type="curve" smooth="yes"/>
			<point x="313" y="-13"/>
			<point x="372" y="56"/>
			<point x="372" y="127" type="curve" smooth="yes"/>
			<point x="372" y="199"/>
			<point x="324" y="251"/>
			<point x="226" y="257" type="curve"/>
			<point x="221" y="251" type="line"/>
			<point x="319" y="256"/>
			<point x="355" y="309"/>
			<point x="355" y="365" type="curve" smooth="yes"/>
			<point x="355" y="441"/>
			<point x="302" y="483"/>
			<point x="198" y="483" type="curve" smooth="yes"/>
			<point x="150" y="483"/>
			<point x="108" y="471"/>
			<point x="62" y="443" type="curve"/>
			<point x="64" y="347" type="line"/>
			<point x="86" y="347" type="line"/>
			<point x="95" y="452" type="line"/>
			<point x="79" y="440" type="line"/>
			<point x="79" y="424" type="line"/>
			<point x="121" y="454"/>
			<point x="157" y="463"/>
			<point x="195" y="463" type="curve" smooth="yes"/>
			<point x="287" y="463"/>
			<point x="327" y="427"/>
			<point x="327" y="366" type="curve" smooth="yes"/>
			<point x="327" y="298"/>
			<point x="285" y="264"/>
			<point x="194" y="264" type="curve" smooth="yes"/>
			<point x="154" y="264" type="line"/>
			<point x="154" y="243" type="line"/>
			<point x="196" y="243" type="line" smooth="yes"/>
			<point x="296" y="243"/>
			<point x="341" y="202"/>
			<point x="341" y="130" type="curve" smooth="yes"/>
			<point x="341" y="55"/>
			<point x="287" y="7"/>
			<point x="197" y="7" type="curve" smooth="yes"/>
			<point x="152" y="7"/>
			<point x="116" y="14"/>
		</contour>
	</outline>
</glyph>
<glyph name="yeru" format="2">
	<unicode hex="044B"/>
	<advance width="749"/>
	<outline>
		<contour>
			<point x="468" y="0" type="line"/>
			<point x="674" y="0" type="line"/>
			<point x="674" y="20" type="line"/>
			<point x="576" y="26" type="line"/>
			<point x="566" y="26" type="line"/>
			<point x="468" y="20" type="line"/>
		</contour>
		<contour>
			<point x="468" y="450" type="line"/>
			<point x="566" y="444" type="line"/>
			<point x="576" y="444" type="line"/>
			<point x="674" y="450" type="line"/>
			<point x="674" y="470" type="line"/>
			<point x="468" y="470" type="line"/>
		</contour>
		<contour>
			<point x="554" y="0" type="curve"/>
			<point x="588" y="0" type="line"/>
			<point x="586" y="45"/>
			<point x="585" y="148"/>
			<point x="585" y="210" type="curve" smooth="yes"/>
			<point x="585" y="260" type="line" smooth="yes"/>
			<point x="585" y="322"/>
			<point x="586" y="425"/>
			<point x="588" y="470" type="curve"/>
			<point x="554" y="470" type="line"/>
			<point x="556" y="425"/>
			<point x="557" y="322"/>
			<point x="557" y="260" type="curve" smooth="yes"/>
			<point x="557" y="210" type="line" smooth="yes"/>
			<point x="557" y="148"/>
			<point x="556" y="45"/>
		</contour>
		<contour>
			<point x="57" y="0" type="line"/>
			<point x="165" y="0" type="line"/>
			<point x="165" y="26" type="line"/>
			<point x="155" y="26" type="line"/>
			<point x="57" y="20" type="line"/>
		</contour>
		<contour>
			<point x="57" y="450" type="line"/>
			<point x="155" y="444" type="line"/>
			<point x="165" y="444" type="line"/>
			<point x="263" y="450" type="line"/>
			<point x="263" y="470" type="line"/>
			<point x="57" y="470" type="line"/>
		</contour>
		<contour>
			<point x="143" y="0" type="curve"/>
			<point x="177" y="0" type="line"/>
			<point x="175" y="45"/>
			<point x="174" y="148"/>
			<point x="174" y="210" type="curve" smooth="yes"/>
			<point x="174" y="260" type="line" smooth="yes"/>
			<point x="174" y="322"/>
			<point x="175" y="425"/>
			<point x="177" y="470" type="curve"/>
			<point x="143" y="470" type="line"/>
			<point x="145" y="425"/>
			<point x="146" y="322"/>
			<point x="146" y="260" type="curve" smooth="yes"/>
			<point x="146" y="210" type="line" smooth="yes"/>
			<point x="146" y="148"/>
			<point x="145" y="45"/>
		</contour>
		<contour>
			<point x="160" y="0" type="line"/>
			<point x="244" y="0" type="line" smooth="yes"/>
			<point x="377" y="0"/>
			<point x="428" y="63"/>
			<point x="428" y="141" type="curve" smooth="yes"/>
			<point x="428" y="218"/>
			<point x="384" y="280"/>
			<point x="255" y="280" type="curve" smooth="yes"/>
			<point x="229" y="280"/>
			<point x="191" y="277"/>
			<point x="160" y="274" type="curve"/>
			<point x="160" y="254" type="line"/>
			<point x="191" y="258"/>
			<point x="227" y="260"/>
			<point x="250" y="260" type="curve" smooth="yes"/>
			<point x="351" y="260"/>
			<point x="398" y="218"/>
			<point x="398" y="144" type="curve" smooth="yes"/>
			<point x="398" y="57"/>
			<point x="346" y="20"/>
			<point x="229" y="20" type="curve" smooth="yes"/>
			<point x="160" y="20" type="line"/>
		</contour>
	</outline>
	<anchor name="aboveLC" x="364" y="490"/>
</glyph>
<glyph name="dje" format="2">
	<unicode hex="0452"/>
	<advance width="557"/>
	<outline>
		<contour>
			<point x="137" y="0" type="curve"/>
			<point x="171" y="0" type="line"/>
			<point x="169" y="45"/>
			<point x="168" y="148"/>
			<point x="168" y="210" type="curve" smooth="yes"/>
			<point x="168" y="354" type="line"/>
			<point x="168" y="367" type="line"/>
			<point x="168" y="588" type="line"/>
			<point x="170" y="740" type="line"/>
			<point x="154" y="748" type="line"/>
			<point x="49" y="736" type="line"/>
			<point x="49" y="716" type="line"/>
			<point x="140" y="716" type="line"/>
			<point x="140" y="210" type="line" smooth="yes"/>
			<point x="140" y="148"/>
			<point x="139" y="45"/>
		</contour>
		<contour>
			<point x="48" y="0" type="line"/>
			<point x="251" y="0" type="line"/>
			<point x="251" y="20" type="line"/>
			<point x="157" y="26" type="line"/>
			<point x="148" y="26" type="line"/>
			<point x="48" y="20" type="line"/>
		</contour>
		<contour>
			<point x="48" y="585" type="line"/>
			<point x="368" y="585" type="line"/>
			<point x="368" y="609" type="line"/>
			<point x="48" y="609" type="line"/>
		</contour>
		<contour>
			<point x="268" y="-236" type="curve"/>
			<point x="272" y="-245"/>
			<point x="290" y="-255"/>
			<point x="322" y="-255" type="curve" smooth="yes"/>
			<point x="361" y="-255"/>
			<point x="400" y="-234"/>
			<point x="431" y="-179" type="curve" smooth="yes"/>
			<point x="464" y="-121"/>
			<point x="489" y="-12"/>
			<point x="489" y="140" type="curve" smooth="yes"/>
			<point x="489" y="364"/>
			<point x="428" y="458"/>
			<point x="322" y="458" type="curve" smooth="yes"/>
			<point x="267" y="458"/>
			<point x="204" y="431"/>
			<point x="154" y="356" type="curve"/>
			<point x="163" y="341" type="line"/>
			<point x="215" y="406"/>
			<point x="262" y="433"/>
			<point x="320" y="433" type="curve" smooth="yes"/>
			<point x="410" y="433"/>
			<point x="461" y="346"/>
			<point x="461" y="140" type="curve" smooth="yes"/>
			<point x="461" y="0"/>
			<point x="443" y="-114"/>
			<point x="408" y="-173" type="curve" smooth="yes"/>
			<point x="387" y="-208"/>
			<point x="362" y="-230"/>
			<point x="329" y="-240" type="curve"/>
			<point x="375" y="-238" type="line"/>
			<point x="352" y="-227" type="line" smooth="yes"/>
			<point x="330" y="-217"/>
			<point x="315" y="-214"/>
			<point x="302" y="-214" type="curve" smooth="yes"/>
			<point x="282" y="-214"/>
			<point x="271" y="-222"/>
		</contour>
	</outline>
</glyph>
<glyph name="fita" format="2">
	<unicode hex="0473"/>
	<advance width="538"/>
	<outline>
		<contour>
			<point x="67" y="232" type="line"/>
			<point x="472" y="232" type="line"/>
			<point x="472" y="253" type="line"/>
			<point x="67" y="253" type="line"/>
		</contour>
		<contour>
			<point x="269" y="7" type="curve" smooth="yes"/>
			<point x="160" y="7"/>
			<point x="82" y="92"/>
			<point x="82" y="233" type="curve" smooth="yes"/>
			<point x="82" y="374"/>
			<point x="160" y="463"/>
			<point x="269" y="463" type="curve" smooth="yes"/>
			<point x="378" y="463"/>
			<point x="456" y="374"/>
			<point x="456" y="233" type="curve" smooth="yes"/>
			<point x="456" y="92"/>
			<point x="378" y="7"/>
		</contour>
		<contour>
			<point x="269" y="-13" type="curve" smooth="yes"/>
			<point x="384" y="-13"/>
			<point x="486" y="56"/>
			<point x="486" y="233" type="curve" smooth="yes"/>
			<point x="486" y="410"/>
			<point x="384" y="483"/>
			<point x="269" y="483" type="curve" smooth="yes"/>
			<point x="154" y="483"/>
			<point x="52" y="410"/>
			<point x="52" y="233" type="curve" smooth="yes"/>
			<point x="52" y="56"/>
			<point x="154" y="-13"/>
		</contour>
	</outline>
	<anchor name="aboveLC" x="269" y="500"/>
</glyph>
<glyph name="ghestroke" format="2">
	<unicode hex="0493"/>
	<advance width="439"/>
	<outline>
		<contour>
			<point x="45" y="236" type="line"/>
			<point x="280" y="236" type="line"/>
			<point x="280" y="257" type="line"/>
			<point x="45" y="257" type="line"/>
		</contour>
		<component base="ghe"/>
	</outline>
</glyph>
<glyph name="Kabashkir" format="2">
	<unicode hex="04A0"/>
	<advance width="758"/>
	<outline>
		<contour>
			<point x="20" y="514" type="line"/>
			<point x="44" y="514" type="line"/>
			<point x="63" y="677" type="line"/>
			<point x="49" y="655" type="line"/>
			<point x="265" y="655" type="line"/>
			<point x="265" y="677" type="line"/>
			<point x="30" y="677" type="line"/>
		</contour>
		<contour>
			<point x="265" y="650" type="line"/>
			<point x="274" y="650" type="line"/>
			<point x="401" y="657" type="line"/>
			<point x="401" y="677" type="line"/>
			<point x="265" y="677" type="line"/>
		</contour>
		<contour>
			<point x="153" y="0" type="line"/>
			<point x="401" y="0" type="line"/>
			<point x="401" y="20" type="line"/>
			<point x="284" y="27" type="line"/>
			<point x="270" y="27" type="line"/>
			<point x="153" y="20" type="line"/>
		</contour>
		<contour>
			<point x="260" y="0" type="curve"/>
			<point x="294" y="0" type="line"/>
			<point x="292" y="102"/>
			<point x="292" y="206"/>
			<point x="292" y="344" type="curve" smooth="yes"/>
			<point x="292" y="354" type="line" smooth="yes"/>
			<point x="292" y="471"/>
			<point x="292" y="575"/>
			<point x="294" y="677" type="curve"/>
			<point x="260" y="677" type="line"/>
			<point x="262" y="575"/>
			<point x="262" y="471"/>
			<point x="262" y="367" type="curve" smooth="yes"/>
			<point x="262" y="310" type="line" smooth="yes"/>
			<point x="262" y="206"/>
			<point x="262" y="102"/>
		</contour>
		<contour>
			<point x="600" y="34" type="line" smooth="yes"/>
			<point x="612" y="3"/>
			<point x="626" y="-5"/>
			<point x="679" y="-5" type="curve" smooth="yes"/>
			<point x="708" y="-5"/>
			<point x="729" y="-2"/>
			<point x="745" y="0" type="curve"/>
			<point x="745" y="18" type="line"/>
			<point x="620" y="25" type="line"/>
			<point x="638" y="17" type="line"/>
			<point x="557" y="220" type="line" smooth="yes"/>
			<point x="532" y="283"/>
			<point x="485" y="351"/>
			<point x="381" y="358" type="curve"/>
			<point x="373" y="343" type="line"/>
			<point x="452" y="355"/>
			<point x="481" y="370"/>
			<point x="548" y="514" type="curve" smooth="yes"/>
			<point x="578" y="578"/>
			<point x="599" y="612"/>
			<point x="639" y="658" type="curve"/>
			<point x="609" y="646" type="line"/>
			<point x="641" y="643"/>
			<point x="662" y="638"/>
			<point x="679" y="638" type="curve" smooth="yes"/>
			<point x="703" y="638"/>
			<point x="713" y="649"/>
			<point x="713" y="663" type="curve" smooth="yes"/>
			<point x="713" y="677"/>
			<point x="702" y="688"/>
			<point x="685" y="691" type="curve"/>
			<point x="623" y="689"/>
			<point x="590" y="651"/>
			<point x="529" y="521" type="curve" smooth="yes"/>
			<point x="464" y="382"/>
			<point x="440" y="361"/>
			<point x="362" y="361" type="curve" smooth="yes"/>
			<point x="277" y="361" type="line"/>
			<point x="277" y="341" type="line"/>
			<point x="358" y="341" type="line" smooth="yes"/>
			<point x="450" y="341"/>
			<point x="491" y="308"/>
			<point x="530" y="210" type="curve" smooth="yes"/>
		</contour>
	</outline>
</glyph>
<glyph name="Esdescender" format="1">
	<unicode hex="04AA"/>
	<advance width="644"/>
	<outline>
		<contour>
			<point x="265" y="-203" type="line"/>
			<point x="286" y="-210"/>
			<point x="305" y="-214"/>
			<point x="323" y="-214" type="curve" smooth="yes"/>
			<point x="378" y="-214"/>
			<point x="410" y="-184"/>
			<point x="410" y="-141" type="curve" smooth="yes"/>
			<point x="410" y="-90"/>
			<point x="387" y="-49"/>
			<point x="349" y="0" type="curve"/>
			<point x="331" y="0" type="line"/>
			<point x="368" y="-57"/>
			<point x="380" y="-93"/>
			<point x="380" y="-137" type="curve" smooth="yes"/>
			<point x="380" y="-172"/>
			<point x="358" y="-195"/>
			<point x="317" y="-195" type="curve" smooth="yes"/>
			<point x="305" y="-195"/>
			<point x="288" y="-192"/>
			<point x="269" y="-188" type="curve"/>
		</contour>
		<component base="Es"/>
	</outline>
</glyph>
<glyph name="esdescender" format="1">
	<unicode hex="04AB"/>
	<advance width="488"/>
	<outline>
		<contour>
			<point x="187" y="-203" type="line"/>
			<point x="208" y="-210"/>
			<point x="227" y="-214"/>
			<point x="245" y="-214" type="curve" smooth="yes"/>
			<point x="300" y="-214"/>
			<point x="332" y="-184"/>
			<point x="332" y="-141" type="curve" smooth="yes"/>
			<point x="332" y="-90"/>
			<point x="309" y="-49"/>
			<point x="271" y="0" type="curve"/>
			<point x="253" y="0" type="line"/>
			<point x="290" y="-57"/>
			<point x="302" y="-93"/>
			<point x="302" y="-137" type="curve" smooth="yes"/>
			<point x="302" y="-172"/>
			<point x="280" y="-195"/>
			<point x="239" y="-195" type="curve" smooth="yes"/>
			<point x="227" y="-195"/>
			<point x="210" y="-192"/>
			<point x="191" y="-188" type="curve"/>
		</contour>
		<component base="es"/>
	</outline>
</glyph>
<glyph name="Schwacyr" format="2">
	<unicode hex="04D8"/>
	<advance width="658"/>
	<outline>
		<contour>
			<point x="316" y="-13" type="curve" smooth="yes"/>
			<point x="470" y="-13"/>
			<point x="595" y="106"/>
			<point x="595" y="342" type="curve" smooth="yes"/>
			<point x="595" y="582"/>
			<point x="477" y="690"/>
			<point x="320" y="690" type="curve" smooth="yes"/>
			<point x="237" y="690"/>
			<point x="173" y="670"/>
			<point x="109" y="629" type="curve"/>
			<point x="97" y="490" type="line"/>
			<point x="121" y="490" type="line"/>
			<point x="147" y="635" type="line"/>
			<point x="126" y="608" type="line"/>
			<point x="186" y="649"/>
			<point x="247" y="668"/>
			<point x="316" y="668" type="curve" smooth="yes"/>
			<point x="459" y="668"/>
			<point x="565" y="574"/>
			<point x="565" y="346" type="curve" smooth="yes"/>
			<point x="565" y="141"/>
			<point x="464" y="9"/>
			<point x="319" y="9" type="curve" smooth="yes"/>
			<point x="160" y="9"/>
			<point x="93" y="131"/>
			<point x="93" y="278" type="curve" smooth="yes"/>
			<point x="93" y="298"/>
			<point x="95" y="316"/>
			<point x="99" y="334" type="curve"/>
			<point x="571" y="334" type="line"/>
			<point x="571" y="356" type="line"/>
			<point x="72" y="356" type="line"/>
			<point x="67" y="336"/>
			<point x="63" y="313"/>
			<point x="63" y="275" type="curve" smooth="yes"/>
			<point x="63" y="117"/>
			<point x="143" y="-13"/>
		</contour>
	</outline>
</glyph>
<glyph name="f.sups" format="1">
	<unicode hex="1DA0"/>
	<advance width="235"/>
	<outline>
		<contour>
			<point x="104" y="460" type="line"/>
			<point x="96" y="460" type="line"/>
			<point x="23" y="453" type="line"/>
			<point x="23" y="437" type="line"/>
			<point x="183" y="437" type="line"/>
			<point x="183" y="453" type="line"/>
		</contour>
		<contour>
			<point x="101" y="746" type="line"/>
			<point x="101" y="725" type="line"/>
			<point x="218" y="725" type="line"/>
			<point x="218" y="746" type="line"/>
		</contour>
		<contour>
			<point x="88" y="437" type="line"/>
			<point x="114" y="437" type="line"/>
			<point x="114" y="732" type="line"/>
			<point x="113" y="823"/>
			<point x="127" y="860"/>
			<point x="150" y="887" type="curve" smooth="yes"/>
			<point x="167" y="908"/>
			<point x="192" y="922"/>
			<point x="215" y="922" type="curve" smooth="yes"/>
			<point x="222" y="922"/>
			<point x="229" y="921"/>
			<point x="233" y="919" type="curve"/>
			<point x="220" y="931" type="line"/>
			<point x="179" y="922" type="line"/>
			<point x="206" y="908" type="line" smooth="yes"/>
			<point x="224" y="901"/>
			<point x="232" y="898"/>
			<point x="242" y="898" type="curve" smooth="yes"/>
			<point x="257" y="898"/>
			<point x="266" y="906"/>
			<point x="267" y="917" type="curve"/>
			<point x="261" y="929"/>
			<point x="242" y="936"/>
			<point x="220" y="936" type="curve" smooth="yes"/>
			<point x="195" y="936"/>
			<point x="162" y="928"/>
			<point x="135" y="898" type="curve" smooth="yes"/>
			<point x="100" y="862"/>
			<point x="89" y="815"/>
			<point x="87" y="742" type="curve"/>
			<point x="98" y="747" type="line"/>
			<point x="24" y="742" type="line"/>
			<point x="24" y="725" type="line"/>
			<point x="88" y="725" type="line"/>
		</contour>
	</outline>
</glyph>
<glyph name="endash" format="2">
	<unicode hex="2013"/>
	<advance width="510"/>
	<outline>
		<contour>
			<point x="40" y="235" type="line"/>
			<point x="470" y="235" type="line"/>
			<point x="470" y="261" type="line"/>
			<point x="40" y="261" type="line"/>
		</contour>
	</outline>
</glyph>
<glyph name="daggerdbl" format="2">
	<unicode hex="2021"/>
	<advance width="500"/>
	<outline>
		<contour>
			<point x="40" y="145" type="curve" smooth="yes"/>
			<point x="40" y="132"/>
			<point x="49" y="123"/>
			<point x="67" y="123" type="curve" smooth="yes"/>
			<point x="84" y="123"/>
			<point x="135" y="128"/>
			<point x="164" y="131" type="curve" smooth="yes"/>
			<point x="250" y="138" type="line"/>
			<point x="250" y="152" type="line"/>
			<point x="164" y="159" type="line" smooth="yes"/>
			<point x="135" y="162"/>
			<point x="84" y="167"/>
			<point x="67" y="167" type="curve" smooth="yes"/>
			<point x="49" y="167"/>
			<point x="40" y="159"/>
		</contour>
		<contour>
			<point x="460" y="145" type="curve" smooth="yes"/>
			<point x="460" y="158"/>
			<point x="451" y="167"/>
			<point x="433" y="167" type="curve" smooth="yes"/>
			<point x="416" y="167"/>
			<point x="365" y="162"/>
			<point x="336" y="159" type="curve" smooth="yes"/>
			<point x="250" y="152" type="line"/>
			<point x="250" y="138" type="line"/>
			<point x="336" y="131" type="line" smooth="yes"/>
			<point x="365" y="128"/>
			<point x="416" y="123"/>
			<point x="433" y="123" type="curve" smooth="yes"/>
			<point x="451" y="123"/>
			<point x="460" y="131"/>
		</contour>
		<contour>
			<point x="250" y="-75" type="curve" smooth="yes"/>
			<point x="263" y="-75"/>
			<point x="272" y="-66"/>
			<point x="272" y="-48" type="curve" smooth="yes"/>
			<point x="272" y="-31"/>
			<point x="267" y="20"/>
			<point x="264" y="49" type="curve" smooth="yes"/>
			<point x="257" y="145" type="line"/>
			<point x="243" y="145" type="line"/>
			<point x="236" y="49" type="line" smooth="yes"/>
			<point x="233" y="20"/>
			<point x="228" y="-31"/>
			<point x="228" y="-48" type="curve" smooth="yes"/>
			<point x="228" y="-66"/>
			<point x="236" y="-75"/>
		</contour>
		<contour>
			<point x="460" y="478" type="curve" smooth="yes"/>
			<point x="460" y="492"/>
			<point x="451" y="500"/>
			<point x="433" y="500" type="curve" smooth="yes"/>
			<point x="416" y="500"/>
			<point x="365" y="495"/>
			<point x="336" y="492" type="curve" smooth="yes"/>
			<point x="250" y="485" type="line"/>
			<point x="250" y="471" type="line"/>
			<point x="336" y="464" type="line" smooth="yes"/>
			<point x="365" y="461"/>
			<point x="416" y="456"/>
			<point x="433" y="456" type="curve" smooth="yes"/>
			<point x="451" y="456"/>
			<point x="460" y="465"/>
		</contour>
		<contour>
			<point x="250" y="698" type="curve" smooth="yes"/>
			<point x="236" y="698"/>
			<point x="228" y="689"/>
			<point x="228" y="671" type="curve" smooth="yes"/>
			<point x="228" y="654"/>
			<point x="233" y="603"/>
			<point x="236" y="574" type="curve" smooth="yes"/>
			<point x="243" y="478" type="line"/>
			<point x="257" y="478" type="line"/>
			<point x="264" y="574" type="line" smooth="yes"/>
			<point x="267" y="603"/>
			<point x="272" y="654"/>
			<point x="272" y="671" type="curve" smooth="yes"/>
			<point x="272" y="689"/>
			<point x="263" y="698"/>
		</contour>
		<contour>
			<point x="40" y="478" type="curve" smooth="yes"/>
			<point x="40" y="464"/>
			<point x="49" y="456"/>
			<point x="67" y="456" type="curve" smooth="yes"/>
			<point x="84" y="456"/>
			<point x="135" y="461"/>
			<point x="164" y="464" type="curve" smooth="yes"/>
			<point x="250" y="471" type="line"/>
			<point x="250" y="485" type="line"/>
			<point x="164" y="492" type="line" smooth="yes"/>
			<point x="135" y="495"/>
			<point x="84" y="500"/>
			<point x="67" y="500" type="curve" smooth="yes"/>
			<point x="49" y="500"/>
			<point x="40" y="491"/>
		</contour>
		<contour>
			<point x="266" y="311" type="curve" smooth="yes"/>
			<point x="266" y="341"/>
			<point x="262" y="403"/>
			<point x="257" y="478" type="curve"/>
			<point x="243" y="478" type="line"/>
			<point x="238" y="403"/>
			<point x="234" y="341"/>
			<point x="234" y="311" type="curve" smooth="yes"/>
			<point x="234" y="281"/>
			<point x="238" y="220"/>
			<point x="243" y="145" type="curve"/>
			<point x="257" y="145" type="line"/>
			<point x="262" y="220"/>
			<point x="266" y="281"/>
		</contour>
	</outline>
</glyph>
<glyph name="prime" format="2">
	<unicode hex="2032"/>
	<advance width="228"/>
	<outline>
		<contour>
			<point x="81" y="471" type="line"/>
			<point x="96" y="469" type="line"/>
			<point x="104" y="514"/>
			<point x="111" y="558"/>
			<point x="115" y="582" type="curve" smooth="yes"/>
			<point x="128" y="665"/>
			<point x="133" y="701"/>
			<point x="133" y="723" type="curve" smooth="yes"/>
			<point x="133" y="738"/>
			<point x="125" y="747"/>
			<point x="113" y="747" type="curve" smooth="yes"/>
			<point x="104" y="747"/>
			<point x="97" y="743"/>
			<point x="92" y="738" type="curve"/>
		</contour>
	</outline>
</glyph>
<glyph name="parenright.sups" format="2">
	<unicode hex="207E"/>
	<advance width="245"/>
	<outline>
		<contour>
			<point x="139" y="605" type="curve" smooth="yes"/>
			<point x="139" y="502"/>
			<point x="114" y="429"/>
			<point x="35" y="321" type="curve"/>
			<point x="45" y="312" type="line"/>
			<point x="130" y="401"/>
			<point x="168" y="495"/>
			<point x="168" y="605" type="curve" smooth="yes"/>
			<point x="168" y="716"/>
			<point x="130" y="809"/>
			<point x="45" y="898" type="curve"/>
			<point x="35" y="889" type="line"/>
			<point x="114" y="782"/>
			<point x="139" y="709"/>
		</contour>
	</outline>
</glyph>
<glyph name="hryvnia" format="1">
	<unicode hex="20B4"/>
	<advance width="490"/>
	<outline>
		<contour>
			<point x="47" y="252" type="line"/>
			<point x="444" y="252" type="line"/>
			<point x="444" y="276" type="line"/>
			<point x="47" y="276" type="line"/>
		</contour>
		<contour>
			<point x="47" y="373" type="line"/>
			<point x="444" y="373" type="line"/>
			<point x="444" y="397" type="line"/>
			<point x="47" y="397" type="line"/>
		</contour>
		<contour>
			<point x="80" y="124" type="curve" smooth="yes"/>
			<point x="80" y="29"/>
			<point x="147" y="-13"/>
			<point x="231" y="-13" type="curve" smooth="yes"/>
			<point x="334" y="-13"/>
			<point x="403" y="34"/>
			<point x="428" y="113" type="curve"/>
			<point x="427" y="127"/>
			<point x="420" y="134"/>
			<point x="406" y="134" type="curve" smooth="yes"/>
			<point x="395" y="134"/>
			<point x="383" y="130"/>
			<point x="378" y="114" type="curve" smooth="yes"/>
			<point x="350" y="27" type="line"/>
			<point x="384" y="62" type="line"/>
			<point x="338" y="21"/>
			<point x="291" y="7"/>
			<point x="231" y="7" type="curve" smooth="yes"/>
			<point x="153" y="7"/>
			<point x="104" y="47"/>
			<point x="104" y="124" type="curve" smooth="yes"/>
			<point x="104" y="180"/>
			<point x="128" y="219"/>
			<point x="180" y="268" type="curve"/>
			<point x="156" y="268" type="line"/>
			<point x="105" y="222"/>
			<point x="80" y="180"/>
		</contour>
		<contour>
			<point x="95" y="510" type="curve" smooth="yes"/>
			<point x="106" y="510"/>
			<point x="119" y="514"/>
			<point x="123" y="530" type="curve" smooth="yes"/>
			<point x="155" y="630" type="line"/>
			<point x="115" y="583" type="line"/>
			<point x="161" y="633"/>
			<point x="196" y="647"/>
			<point x="259" y="647" type="curve" smooth="yes"/>
			<point x="327" y="647"/>
			<point x="372" y="609"/>
			<point x="372" y="537" type="curve" smooth="yes"/>
			<point x="372" y="474"/>
			<point x="336" y="435"/>
			<point x="279" y="381" type="curve"/>
			<point x="304" y="381" type="line"/>
			<point x="364" y="434"/>
			<point x="396" y="480"/>
			<point x="396" y="537" type="curve" smooth="yes"/>
			<point x="396" y="626"/>
			<point x="339" y="667"/>
			<point x="259" y="667" type="curve" smooth="yes"/>
			<point x="169" y="667"/>
			<point x="100" y="619"/>
			<point x="73" y="531" type="curve"/>
			<point x="74" y="517"/>
			<point x="81" y="510"/>
		</contour>
		<contour>
			<point x="157" y="272" type="line"/>
			<point x="185" y="272" type="line"/>
			<point x="305" y="379" type="line"/>
			<point x="277" y="379" type="line"/>
		</contour>
	</outline>
</glyph>
<glyph name="cedi" format="2">
	<unicode hex="20B5"/>
	<advance width="490"/>
	<outline>
		<contour>
			<point x="289" y="-13" type="curve" smooth="yes"/>
			<point x="369" y="-13"/>
			<point x="423" y="31"/>
			<point x="457" y="102" type="curve"/>
			<point x="453" y="111"/>
			<point x="446" y="116"/>
			<point x="437" y="116" type="curve" smooth="yes"/>
			<point x="426" y="116"/>
			<point x="419" y="108"/>
			<point x="412" y="95" type="curve" smooth="yes"/>
			<point x="372" y="18" type="line"/>
			<point x="402" y="49" type="line"/>
			<point x="357" y="15"/>
			<point x="330" y="7"/>
			<point x="289" y="7" type="curve" smooth="yes"/>
			<point x="184" y="7"/>
			<point x="103" y="111"/>
			<point x="103" y="327" type="curve" smooth="yes"/>
			<point x="103" y="544"/>
			<point x="192" y="647"/>
			<point x="289" y="647" type="curve" smooth="yes"/>
			<point x="330" y="647"/>
			<point x="362" y="639"/>
			<point x="402" y="605" type="curve"/>
			<point x="372" y="636" type="line"/>
			<point x="412" y="559" type="line" smooth="yes"/>
			<point x="419" y="546"/>
			<point x="426" y="538"/>
			<point x="437" y="538" type="curve" smooth="yes"/>
			<point x="446" y="538"/>
			<point x="453" y="543"/>
			<point x="457" y="552" type="curve"/>
			<point x="424" y="621"/>
			<point x="370" y="667"/>
			<point x="289" y="667" type="curve" smooth="yes"/>
			<point x="163" y="667"/>
			<point x="71" y="541"/>
			<point x="71" y="327" type="curve" smooth="yes"/>
			<point x="71" y="114"/>
			<point x="154" y="-13"/>
		</contour>
		<contour>
			<point x="273" y="-115" type="line"/>
			<point x="295" y="-115" type="line"/>
			<point x="295" y="762" type="line"/>
			<point x="273" y="762" type="line"/>
		</contour>
	</outline>
</glyph>
<glyph name="Ef.scbgr" format="2">
	<advance width="621"/>
	<outline>
		<contour>
			<point x="202" y="-58" type="line"/>
			<point x="420" y="-58" type="line"/>
			<point x="420" y="-40" type="line"/>
			<point x="317" y="-34" type="line"/>
			<point x="304" y="-34" type="line"/>
			<point x="202" y="-40" type="line"/>
		</contour>
		<contour>
			<point x="202" y="596" type="line"/>
			<point x="304" y="590" type="line"/>
			<point x="317" y="590" type="line"/>
			<point x="420" y="596" type="line"/>
			<point x="420" y="614" type="line"/>
			<point x="202" y="614" type="line"/>
		</contour>
		<contour>
			<point x="296" y="-58" type="line"/>
			<point x="326" y="-58" type="line"/>
			<point x="326" y="614" type="line"/>
			<point x="296" y="614" type="line"/>
		</contour>
		<contour>
			<point x="90" y="278" type="curve" smooth="yes"/>
			<point x="90" y="411"/>
			<point x="172" y="507"/>
			<point x="311" y="507" type="curve" smooth="yes"/>
			<point x="449" y="507"/>
			<point x="532" y="411"/>
			<point x="532" y="278" type="curve" smooth="yes"/>
			<point x="532" y="145"/>
			<point x="449" y="49"/>
			<point x="311" y="49" type="curve" smooth="yes"/>
			<point x="172" y="49"/>
			<point x="90" y="145"/>
		</contour>
		<contour>
			<point x="311" y="527" type="curve" smooth="yes"/>
			<point x="168" y="527"/>
			<point x="57" y="437"/>
			<point x="57" y="278" type="curve" smooth="yes"/>
			<point x="57" y="119"/>
			<point x="167" y="29"/>
			<point x="311" y="29" type="curve" smooth="yes"/>
			<point x="454" y="29"/>
			<point x="564" y="118"/>
			<point x="564" y="278" type="curve" smooth="yes"/>
			<point x="564" y="438"/>
			<point x="454" y="527"/>
		</contour>
	</outline>
</glyph>
<glyph name="Endescender.sc" format="2">
	<advance width="731"/>
	<outline>
		<contour>
			<point x="552" y="0" type="line"/>
			<point x="644" y="0" type="line"/>
			<point x="629" y="19" type="line"/>
			<point x="640" y="-140" type="line"/>
			<point x="661" y="-140" type="line"/>
			<point x="662" y="19" type="line"/>
			<point x="552" y="25" type="line"/>
		</contour>
		<component base="En.sc"/>
	</outline>
</glyph>
<glyph name="Esdescender.sc" format="1">
	<advance width="601"/>
	<outline>
		<contour>
			<point x="273" y="-203" type="line"/>
			<point x="294" y="-210"/>
			<point x="313" y="-214"/>
			<point x="331" y="-214" type="curve" smooth="yes"/>
			<point x="386" y="-214"/>
			<point x="418" y="-184"/>
			<point x="418" y="-141" type="curve" smooth="yes"/>
			<point x="418" y="-90"/>
			<point x="395" y="-49"/>
			<point x="357" y="0" type="curve"/>
			<point x="339" y="0" type="line"/>
			<point x="376" y="-57"/>
			<point x="388" y="-93"/>
			<point x="388" y="-137" type="curve" smooth="yes"/>
			<point x="388" y="-172"/>
			<point x="366" y="-195"/>
			<point x="325" y="-195" type="curve" smooth="yes"/>
			<point x="313" y="-195"/>
			<point x="296" y="-192"/>
			<point x="277" y="-188" type="curve"/>
		</contour>
		<component base="Es.sc"/>
	</outline>
</glyph>
<glyph name="Ghe.sc" format="1">
	<advance width="519"/>
	<outline>
		<component base="Gamma.sc"/>
		<contour>
			<point name="aboveUC" x="309" y="561" type="move"/>
		</contour>
	</outline>
</glyph>
<glyph name="Hbar.sc" format="2">
	<advance width="718"/>
	<outline>
		<contour>
			<point x="540" y="532" type="line"/>
			<point x="553" y="532" type="line"/>
			<point x="656" y="538" type="line"/>
			<point x="656" y="556" type="line"/>
			<point x="437" y="556" type="line"/>
			<point x="437" y="538" type="line"/>
		</contour>
		<contour>
			<point x="540" y="24" type="line"/>
			<point x="437" y="18" type="line"/>
			<point x="437" y="0" type="line"/>
			<point x="656" y="0" type="line"/>
			<point x="656" y="18" type="line"/>
			<point x="553" y="24" type="line"/>
		</contour>
		<contour>
			<point x="531" y="278" type="line" smooth="yes"/>
			<point x="531" y="169"/>
			<point x="531" y="84"/>
			<point x="529" y="0" type="curve"/>
			<point x="563" y="0" type="line"/>
			<point x="561" y="84"/>
			<point x="561" y="169"/>
			<point x="561" y="255" type="curve" smooth="yes"/>
			<point x="561" y="301" type="line" smooth="yes"/>
			<point x="561" y="387"/>
			<point x="561" y="472"/>
			<point x="563" y="556" type="curve"/>
			<point x="529" y="556" type="line"/>
			<point x="531" y="472"/>
			<point x="531" y="387"/>
			<point x="531" y="301" type="curve" smooth="yes"/>
		</contour>
		<contour>
			<point x="157" y="255" type="line" smooth="yes"/>
			<point x="157" y="169"/>
			<point x="157" y="84"/>
			<point x="155" y="0" type="curve"/>
			<point x="189" y="0" type="line"/>
			<point x="187" y="84"/>
			<point x="187" y="169"/>
			<point x="187" y="278" type="curve" smooth="yes"/>
			<point x="187" y="301" type="line" smooth="yes"/>
			<point x="187" y="387"/>
			<point x="187" y="472"/>
			<point x="189" y="556" type="curve"/>
			<point x="155" y="556" type="line"/>
			<point x="157" y="472"/>
			<point x="157" y="387"/>
			<point x="157" y="301" type="curve" smooth="yes"/>
		</contour>
		<contour>
			<point x="165" y="532" type="line"/>
			<point x="178" y="532" type="line"/>
			<point x="281" y="538" type="line"/>
			<point x="281" y="556" type="line"/>
			<point x="63" y="556" type="line"/>
			<point x="63" y="538" type="line"/>
		</contour>
		<contour>
			<point x="165" y="24" type="line"/>
			<point x="63" y="18" type="line"/>
			<point x="63" y="0" type="line"/>
			<point x="281" y="0" type="line"/>
			<point x="281" y="18" type="line"/>
			<point x="178" y="24" type="line"/>
		</contour>
		<contour>
			<point x="547" y="268" type="line"/>
			<point x="547" y="287" type="line"/>
			<point x="172" y="287" type="line"/>
			<point x="172" y="268" type="line"/>
		</contour>
		<contour>
			<point x="46" y="409" type="line"/>
			<point x="673" y="409" type="line"/>
			<point x="673" y="429" type="line"/>
			<point x="46" y="429" type="line"/>
		</contour>
	</outline>
</glyph>
<glyph name="J.sc" format="2">
	<advance width="342"/>
	<outline>
		<contour>
			<point x="170" y="556" type="line"/>
			<point x="175" y="128"/>
			<point x="173" y="97"/>
			<point x="173" y="71" type="curve" smooth="yes"/>
			<point x="173" y="-48"/>
			<point x="110" y="-90"/>
			<point x="69" y="-103" type="curve"/>
			<point x="70" y="-111" type="line"/>
			<point x="92" y="-105" type="line"/>
			<point x="76" y="-93" type="line" smooth="yes"/>
			<point x="58" y="-80"/>
			<point x="46" y="-76"/>
			<point x="28" y="-76" type="curve" smooth="yes"/>
			<point x="11" y="-76"/>
			<point x="-8" y="-84"/>
			<point x="-11" y="-100" type="curve"/>
			<point x="-5" y="-118"/>
			<point x="14" y="-124"/>
			<point x="44" y="-124" type="curve" smooth="yes"/>
			<point x="84" y="-124"/>
			<point x="119" y="-106"/>
			<point x="150" y="-75" type="curve" smooth="yes"/>
			<point x="186" y="-39"/>
			<point x="203" y="11"/>
			<point x="203" y="134" type="curve" smooth="yes"/>
			<point x="203" y="297" type="line" smooth="yes"/>
			<point x="203" y="385"/>
			<point x="203" y="471"/>
			<point x="205" y="556" type="curve"/>
		</contour>
		<contour>
			<point x="70" y="538" type="line"/>
			<point x="181" y="532" type="line"/>
			<point x="194" y="532" type="line"/>
			<point x="296" y="538" type="line"/>
			<point x="296" y="556" type="line"/>
			<point x="70" y="556" type="line"/>
		</contour>
	</outline>
	<anchor name="aboveUC" x="182" y="561"/>
	<anchor name="belowLC" x="89" y="-133"/>
</glyph>
<glyph name="Kadescender.sc" format="2">
	<advance width="633"/>
	<outline>
		<contour>
			<point x="491" y="0" type="line"/>
			<point x="569" y="0" type="line"/>
			<point x="553" y="17" type="line"/>
			<point x="564" y="-140" type="line"/>
			<point x="586" y="-140" type="line"/>
			<point x="586" y="17" type="line"/>
			<point x="475" y="24" type="line"/>
		</contour>
		<component base="Ka.sc"/>
	</outline>
</glyph>
<glyph name="L.sups" format="2">
	<advance width="369"/>
	<outline>
		<contour>
			<point x="113" y="461" type="line"/>
			<point x="36" y="455" type="line"/>
			<point x="36" y="437" type="line"/>
			<point x="118" y="437" type="line"/>
			<point x="118" y="461" type="line"/>
		</contour>
		<contour>
			<point x="113" y="833" type="line"/>
			<point x="123" y="833" type="line"/>
			<point x="201" y="839" type="line"/>
			<point x="201" y="857" type="line"/>
			<point x="36" y="857" type="line"/>
			<point x="36" y="839" type="line"/>
		</contour>
		<contour>
			<point x="104" y="437" type="line"/>
			<point x="132" y="437" type="line"/>
			<point x="132" y="857" type="line"/>
			<point x="104" y="857" type="line"/>
		</contour>
		<contour>
			<point x="327" y="545" type="line"/>
			<point x="312" y="437" type="line"/>
			<point x="327" y="458" type="line"/>
			<point x="118" y="458" type="line"/>
			<point x="118" y="437" type="line"/>
			<point x="341" y="437" type="line"/>
			<point x="348" y="545" type="line"/>
		</contour>
	</outline>
</glyph>
<glyph name="Lcaron.sc" format="1">
	<advance width="524"/>
	<outline>
		<contour>
			<point x="434" y="634" type="curve" smooth="yes"/>
			<point x="427" y="634"/>
			<point x="421" y="632"/>
			<point x="416" y="628" type="curve"/>
			<point x="414" y="410" type="line"/>
			<point x="429" y="410" type="line"/>
			<point x="437" y="482" type="line" smooth="yes"/>
			<point x="443" y="539"/>
			<point x="450" y="584"/>
			<point x="450" y="612" type="curve" smooth="yes"/>
			<point x="450" y="627"/>
			<point x="445" y="634"/>
		</contour>
		<component base="L.sc"/>
	</outline>
</glyph>
<glyph name="N.sups" format="2">
	<advance width="474"/>
	<outline>
		<contour>
			<point x="390" y="450" type="line"/>
			<point x="390" y="857" type="line"/>
			<point x="371" y="857" type="line"/>
			<point x="371" y="450" type="line"/>
		</contour>
		<contour>
			<point x="386" y="833" type="line"/>
			<point x="449" y="839" type="line"/>
			<point x="449" y="857" type="line"/>
			<point x="300" y="857" type="line"/>
			<point x="300" y="839" type="line"/>
			<point x="376" y="833" type="line"/>
		</contour>
		<contour>
			<point x="94" y="461" type="line"/>
			<point x="30" y="455" type="line"/>
			<point x="30" y="437" type="line"/>
			<point x="179" y="437" type="line"/>
			<point x="179" y="455" type="line"/>
			<point x="104" y="461" type="line"/>
		</contour>
		<contour>
			<point x="88" y="857" type="line"/>
			<point x="88" y="437" type="line"/>
			<point x="107" y="437" type="line"/>
			<point x="107" y="838" type="line"/>
		</contour>
		<contour>
			<point x="26" y="857" type="line"/>
			<point x="26" y="839" type="line"/>
			<point x="110" y="831" type="line"/>
			<point x="78" y="844" type="line"/>
			<point x="376" y="431" type="line"/>
			<point x="390" y="431" type="line"/>
			<point x="390" y="456" type="line"/>
			<point x="103" y="857" type="line"/>
		</contour>
	</outline>
</glyph>
<glyph name="O.sups" format="2">
	<advance width="457"/>
	<outline>
		<contour>
			<point x="70" y="647" type="curve" smooth="yes"/>
			<point x="70" y="752"/>
			<point x="128" y="845"/>
			<point x="229" y="845" type="curve" smooth="yes"/>
			<point x="330" y="845"/>
			<point x="387" y="752"/>
			<point x="387" y="647" type="curve" smooth="yes"/>
			<point x="387" y="542"/>
			<point x="330" y="449"/>
			<point x="229" y="449" type="curve" smooth="yes"/>
			<point x="128" y="449"/>
			<point x="70" y="542"/>
		</contour>
		<contour>
			<point x="229" y="866" type="curve" smooth="yes"/>
			<point x="124" y="866"/>
			<point x="39" y="781"/>
			<point x="39" y="647" type="curve" smooth="yes"/>
			<point x="39" y="511"/>
			<point x="124" y="428"/>
			<point x="229" y="428" type="curve" smooth="yes"/>
			<point x="334" y="428"/>
			<point x="419" y="513"/>
			<point x="419" y="647" type="curve" smooth="yes"/>
			<point x="419" y="783"/>
			<point x="334" y="866"/>
		</contour>
	</outline>
</glyph>
<glyph name="Obarcyr.sc" format="1">
	<advance width="659"/>
	<outline>
		<component base="Fita.sc"/>
		<contour>
			<point name="aboveUC" x="330" y="561" type="move"/>
		</contour>
	</outline>
</glyph>
<glyph name="Sigma.sc" format="2">
	<advance width="504"/>
	<outline>
		<contour>
			<point x="428" y="421" type="line"/>
			<point x="449" y="421" type="line"/>
			<point x="442" y="556" type="line"/>
			<point x="58" y="556" type="line"/>
			<point x="58" y="536" type="line"/>
			<point x="424" y="536" type="line"/>
			<point x="407" y="556" type="line"/>
		</contour>
		<contour>
			<point x="458" y="0" type="line"/>
			<point x="466" y="142" type="line"/>
			<point x="445" y="142" type="line"/>
			<point x="423" y="7" type="line"/>
			<point x="439" y="27" type="line"/>
			<point x="56" y="27" type="line"/>
			<point x="62" y="17" type="line"/>
			<point x="280" y="281" type="line"/>
			<point x="71" y="556" type="line"/>
			<point x="51" y="556" type="line"/>
			<point x="51" y="538" type="line"/>
			<point x="256" y="269" type="line"/>
			<point x="256" y="286" type="line"/>
			<point x="35" y="19" type="line"/>
			<point x="35" y="0" type="line"/>
		</contour>
	</outline>
</glyph>
<glyph name="U.sups" format="2">
	<advance width="475"/>
	<outline>
		<contour>
			<point x="31" y="839" type="line"/>
			<point x="103" y="833" type="line"/>
			<point x="113" y="833" type="line"/>
			<point x="191" y="839" type="line"/>
			<point x="191" y="857" type="line"/>
			<point x="31" y="857" type="line"/>
		</contour>
		<contour>
			<point x="239" y="428" type="curve" smooth="yes"/>
			<point x="338" y="428"/>
			<point x="388" y="482"/>
			<point x="388" y="597" type="curve" smooth="yes"/>
			<point x="388" y="857" type="line"/>
			<point x="369" y="857" type="line"/>
			<point x="369" y="613" type="line" smooth="yes"/>
			<point x="369" y="499"/>
			<point x="330" y="455"/>
			<point x="241" y="455" type="curve" smooth="yes"/>
			<point x="168" y="455"/>
			<point x="120" y="494"/>
			<point x="120" y="602" type="curve" smooth="yes"/>
			<point x="120" y="857" type="line"/>
			<point x="92" y="857" type="line"/>
			<point x="92" y="592" type="line" smooth="yes"/>
			<point x="92" y="476"/>
			<point x="150" y="428"/>
		</contour>
		<contour>
			<point x="293" y="839" type="line"/>
			<point x="372" y="833" type="line"/>
			<point x="382" y="833" type="line"/>
			<point x="446" y="839" type="line"/>
			<point x="446" y="857" type="line"/>
			<point x="293" y="857" type="line"/>
		</contour>
	</outline>
</glyph>
<glyph name="X.sups" format="2">
	<advance width="414"/>
	<outline>
		<contour>
			<point x="77" y="461" type="line"/>
			<point x="14" y="455" type="line"/>
			<point x="14" y="437" type="line"/>
			<point x="162" y="437" type="line"/>
			<point x="162" y="455" type="line"/>
			<point x="87" y="461" type="line"/>
		</contour>
		<contour>
			<point x="331" y="461" type="line"/>
			<point x="321" y="461" type="line"/>
			<point x="245" y="455" type="line"/>
			<point x="245" y="437" type="line"/>
			<point x="399" y="437" type="line"/>
			<point x="399" y="455" type="line"/>
		</contour>
		<contour>
			<point x="328" y="833" type="line"/>
			<point x="393" y="839" type="line"/>
			<point x="393" y="857" type="line"/>
			<point x="245" y="857" type="line"/>
			<point x="245" y="839" type="line"/>
			<point x="318" y="833" type="line"/>
		</contour>
		<contour>
			<point x="84" y="833" type="line"/>
			<point x="94" y="833" type="line"/>
			<point x="172" y="839" type="line"/>
			<point x="172" y="857" type="line"/>
			<point x="17" y="857" type="line"/>
			<point x="17" y="839" type="line"/>
		</contour>
		<contour>
			<point x="200" y="656" type="line"/>
			<point x="58" y="437" type="line"/>
			<point x="82" y="437" type="line"/>
			<point x="211" y="641" type="line"/>
		</contour>
		<contour>
			<point x="353" y="437" type="line"/>
			<point x="94" y="857" type="line"/>
			<point x="63" y="857" type="line"/>
			<point x="322" y="437" type="line"/>
		</contour>
		<contour>
			<point x="211" y="640" type="line"/>
			<point x="349" y="857" type="line"/>
			<point x="326" y="857" type="line"/>
			<point x="200" y="654" type="line"/>
		</contour>
	</outline>
</glyph>
<glyph name="Zedescender.sc" format="1">
	<advance width="500"/>
	<outline>
		<contour>
			<point x="148" y="-203" type="line"/>
			<point x="169" y="-210"/>
			<point x="188" y="-214"/>
			<point x="206" y="-214" type="curve" smooth="yes"/>
			<point x="261" y="-214"/>
			<point x="293" y="-184"/>
			<point x="293" y="-141" type="curve" smooth="yes"/>
			<point x="293" y="-90"/>
			<point x="270" y="-49"/>
			<point x="232" y="0" type="curve"/>
			<point x="214" y="0" type="line"/>
			<point x="251" y="-57"/>
			<point x="263" y="-93"/>
			<point x="263" y="-137" type="curve" smooth="yes"/>
			<point x="263" y="-172"/>
			<point x="241" y="-195"/>
			<point x="200" y="-195" type="curve" smooth="yes"/>
			<point x="188" y="-195"/>
			<point x="171" y="-192"/>
			<point x="152" y="-188" type="curve"/>
		</contour>
		<component base="Ze.sc"/>
	</outline>
</glyph>
<glyph name="Zhedescender.sc" format="2">
	<advance width="848"/>
	<outline>
		<contour>
			<point x="706" y="0" type="line"/>
			<point x="783" y="0" type="line"/>
			<point x="767" y="17" type="line"/>
			<point x="779" y="-140" type="line"/>
			<point x="800" y="-140" type="line"/>
			<point x="801" y="17" type="line"/>
			<point x="690" y="24" type="line"/>
		</contour>
		<component base="Zhe.sc"/>
	</outline>
</glyph>
<glyph name="be.srb" format="2">
	<advance width="517"/>
	<outline>
		<contour>
			<point x="265" y="-13" type="curve" smooth="yes"/>
			<point x="404" y="-13"/>
			<point x="477" y="99"/>
			<point x="477" y="217" type="curve" smooth="yes"/>
			<point x="477" y="342"/>
			<point x="409" y="403"/>
			<point x="284" y="461" type="curve" smooth="yes"/>
			<point x="167" y="515"/>
			<point x="130" y="540"/>
			<point x="130" y="584" type="curve" smooth="yes"/>
			<point x="130" y="594"/>
			<point x="131" y="604"/>
			<point x="143" y="616" type="curve" smooth="yes"/>
			<point x="189" y="662"/>
			<point x="436" y="682"/>
			<point x="457" y="703" type="curve" smooth="yes"/>
			<point x="471" y="717"/>
			<point x="476" y="755"/>
			<point x="478" y="771" type="curve"/>
			<point x="459" y="775" type="line"/>
			<point x="438" y="721" type="line"/>
			<point x="278" y="690"/>
			<point x="157" y="670"/>
			<point x="121" y="634" type="curve" smooth="yes"/>
			<point x="108" y="621"/>
			<point x="102" y="606"/>
			<point x="102" y="586" type="curve" smooth="yes"/>
			<point x="102" y="532"/>
			<point x="155" y="498"/>
			<point x="255" y="451" type="curve" smooth="yes"/>
			<point x="399" y="384"/>
			<point x="445" y="336"/>
			<point x="445" y="217" type="curve" smooth="yes"/>
			<point x="445" y="100"/>
			<point x="372" y="7"/>
			<point x="268" y="7" type="curve" smooth="yes"/>
			<point x="151" y="7"/>
			<point x="94" y="86"/>
			<point x="94" y="193" type="curve" smooth="yes"/>
			<point x="94" y="291"/>
			<point x="151" y="378"/>
			<point x="292" y="444" type="curve"/>
			<point x="275" y="454" type="line"/>
			<point x="126" y="386"/>
			<point x="62" y="301"/>
			<point x="62" y="193" type="curve" smooth="yes"/>
			<point x="62" y="71"/>
			<point x="138" y="-13"/>
		</contour>
	</outline>
</glyph>
<glyph name="bracketleft.sc" format="2">
	<advance width="314"/>
	<outline>
		<contour>
			<point x="136" y="-131" type="line"/>
			<point x="251" y="-131" type="line"/>
			<point x="251" y="-111" type="line"/>
			<point x="148" y="-106" type="line"/>
			<point x="136" y="-106" type="line"/>
		</contour>
		<contour>
			<point x="136" y="563" type="line"/>
			<point x="148" y="563" type="line"/>
			<point x="251" y="568" type="line"/>
			<point x="251" y="588" type="line"/>
			<point x="136" y="588" type="line"/>
		</contour>
		<contour>
			<point x="123" y="130" type="line" smooth="yes"/>
			<point x="123" y="42"/>
			<point x="123" y="-46"/>
			<point x="120" y="-131" type="curve"/>
			<point x="151" y="-131" type="line"/>
			<point x="148" y="-44"/>
			<point x="148" y="44"/>
			<point x="148" y="130" type="curve" smooth="yes"/>
			<point x="148" y="327" type="line" smooth="yes"/>
			<point x="148" y="415"/>
			<point x="148" y="503"/>
			<point x="151" y="588" type="curve"/>
			<point x="120" y="588" type="line"/>
			<point x="123" y="501"/>
			<point x="123" y="413"/>
			<point x="123" y="327" type="curve" smooth="yes"/>
		</contour>
	</outline>
</glyph>
<glyph name="bracketleft.sups" format="2">
	<advance width="245"/>
	<outline>
		<contour>
			<point x="100" y="316" type="line"/>
			<point x="124" y="316" type="line"/>
			<point x="124" y="893" type="line"/>
			<point x="100" y="893" type="line"/>
		</contour>
		<contour>
			<point x="112" y="316" type="line"/>
			<point x="205" y="316" type="line"/>
			<point x="205" y="332" type="line"/>
			<point x="119" y="340" type="line"/>
			<point x="112" y="340" type="line"/>
		</contour>
		<contour>
			<point x="112" y="869" type="line"/>
			<point x="119" y="869" type="line"/>
			<point x="205" y="877" type="line"/>
			<point x="205" y="893" type="line"/>
			<point x="112" y="893" type="line"/>
		</contour>
	</outline>
</glyph>
<glyph name="brevehoi.cap" format="1">
	<outline>
		<component base="hoicmb.cap" yOffset="102"/>
		<component base="brevecmb.cap"/>
		<contour>
			<point name="_aboveUC" x="0" y="682" type="move"/>
		</contour>
	</outline>
</glyph>
<glyph name="comma.sups" format="2">
	<advance width="232"/>
	<outline>
		<contour>
			<point x="144" y="441" type="curve" smooth="yes"/>
			<point x="144" y="456"/>
			<point x="142" y="465"/>
			<point x="138" y="476" type="curve"/>
			<point x="128" y="485"/>
			<point x="121" y="488"/>
			<point x="113" y="488" type="curve" smooth="yes"/>
			<point x="98" y="488"/>
			<point x="88" y="475"/>
			<point x="88" y="460" type="curve" smooth="yes"/>
			<point x="88" y="449"/>
			<point x="94" y="438"/>
			<point x="105" y="429" type="curve" smooth="yes"/>
			<point x="127" y="411" type="line"/>
			<point x="126" y="430" type="line"/>
			<point x="120" y="382"/>
			<point x="91" y="346"/>
			<point x="52" y="320" type="curve"/>
			<point x="58" y="308" type="line"/>
			<point x="102" y="331"/>
			<point x="144" y="384"/>
		</contour>
	</outline>
</glyph>
<glyph name="dieresistonoscmb" format="1">
	<outline>
		<contour>
			<point x="110" y="625" type="curve" smooth="yes"/>
			<point x="125" y="625"/>
			<point x="139" y="636"/>
			<point x="139" y="654" type="curve" smooth="yes"/>
			<point x="139" y="672"/>
			<point x="125" y="683"/>
			<point x="110" y="683" type="curve" smooth="yes"/>
			<point x="95" y="683"/>
			<point x="81" y="672"/>
			<point x="81" y="654" type="curve" smooth="yes"/>
			<point x="81" y="636"/>
			<point x="95" y="625"/>
		</contour>
		<contour>
			<point x="-76" y="625" type="curve" smooth="yes"/>
			<point x="-61" y="625"/>
			<point x="-47" y="636"/>
			<point x="-47" y="654" type="curve" smooth="yes"/>
			<point x="-47" y="672"/>
			<point x="-61" y="683"/>
			<point x="-76" y="683" type="curve" smooth="yes"/>
			<point x="-91" y="683"/>
			<point x="-105" y="672"/>
			<point x="-105" y="654" type="curve" smooth="yes"/>
			<point x="-105" y="636"/>
			<point x="-91" y="625"/>
		</contour>
		<contour>
			<point x="-20" y="565" type="line"/>
			<point x="-7" y="561" type="line"/>
			<point x="47" y="715" type="line" smooth="yes"/>
			<point x="57" y="742"/>
			<point x="59" y="748"/>
			<point x="59" y="755" type="curve" smooth="yes"/>
			<point x="59" y="768"/>
			<point x="51" y="772"/>
			<point x="43" y="772" type="curve" smooth="yes"/>
			<point x="26" y="772"/>
			<point x="24" y="757"/>
			<point x="18" y="730" type="curve" smooth="yes"/>
		</contour>
		<contour>
			<point name="_aboveLC" x="0" y="500" type="move"/>
		</contour>
	</outline>
</glyph>
<glyph name="eacute.sups" format="2">
	<advance width="328"/>
	<outline>
		<contour>
			<point x="146" y="820" type="line"/>
			<point x="157" y="811" type="line"/>
			<point x="240" y="895" type="line" smooth="yes"/>
			<point x="248" y="903"/>
			<point x="253" y="911"/>
			<point x="253" y="918" type="curve" smooth="yes"/>
			<point x="253" y="928"/>
			<point x="246" y="933"/>
			<point x="238" y="933" type="curve" smooth="yes"/>
			<point x="230" y="933"/>
			<point x="222" y="927"/>
			<point x="214" y="916" type="curve" smooth="yes"/>
		</contour>
		<component base="e.sups"/>
	</outline>
</glyph>
<glyph name="egrave.sups" format="2">
	<advance width="328"/>
	<outline>
		<contour>
			<point x="199" y="820" type="line"/>
			<point x="131" y="916" type="line" smooth="yes"/>
			<point x="123" y="927"/>
			<point x="115" y="933"/>
			<point x="107" y="933" type="curve" smooth="yes"/>
			<point x="99" y="933"/>
			<point x="92" y="928"/>
			<point x="92" y="918" type="curve" smooth="yes"/>
			<point x="92" y="911"/>
			<point x="97" y="903"/>
			<point x="105" y="895" type="curve" smooth="yes"/>
			<point x="188" y="811" type="line"/>
		</contour>
		<component base="e.sups"/>
	</outline>
</glyph>
<glyph name="el.bgr" format="2">
	<advance width="563"/>
	<outline>
		<contour>
			<point x="30" y="0" type="line"/>
			<point x="214" y="0" type="line"/>
			<point x="214" y="20" type="line"/>
			<point x="120" y="26" type="line"/>
			<point x="110" y="26" type="line"/>
			<point x="30" y="20" type="line"/>
		</contour>
		<contour>
			<point x="90" y="0" type="line"/>
			<point x="116" y="0" type="line"/>
			<point x="278" y="448" type="line"/>
			<point x="268" y="448" type="line"/>
			<point x="434" y="0" type="line"/>
			<point x="466" y="0" type="line"/>
			<point x="286" y="476" type="line"/>
			<point x="268" y="476" type="line"/>
		</contour>
		<contour>
			<point x="340" y="0" type="line"/>
			<point x="532" y="0" type="line"/>
			<point x="532" y="20" type="line"/>
			<point x="444" y="26" type="line"/>
			<point x="434" y="26" type="line"/>
			<point x="340" y="20" type="line"/>
		</contour>
	</outline>
</glyph>
<glyph name="four.cap" format="2">
	<advance width="500"/>
	<outline>
		<contour>
			<point x="476" y="232" type="line"/>
			<point x="476" y="258" type="line"/>
			<point x="52" y="258" type="line"/>
			<point x="49" y="241" type="line"/>
			<point x="335" y="651" type="line"/>
			<point x="327" y="651" type="line"/>
			<point x="327" y="0" type="line"/>
			<point x="355" y="0" type="line"/>
			<point x="355" y="686" type="line"/>
			<point x="337" y="686" type="line"/>
			<point x="34" y="252" type="line"/>
			<point x="34" y="232" type="line"/>
		</contour>
	</outline>
</glyph>
<glyph name="hard.bgr" format="2">
	<advance width="557"/>
	<outline>
		<contour>
			<point x="38" y="324" type="line"/>
			<point x="60" y="324" type="line"/>
			<point x="80" y="466" type="line"/>
			<point x="67" y="449" type="line"/>
			<point x="257" y="449" type="line"/>
			<point x="257" y="470" type="line"/>
			<point x="46" y="470" type="line"/>
		</contour>
		<contour>
			<point x="375" y="-13" type="curve" smooth="yes"/>
			<point x="486" y="-13"/>
			<point x="541" y="61"/>
			<point x="541" y="154" type="curve" smooth="yes"/>
			<point x="541" y="233"/>
			<point x="495" y="299"/>
			<point x="387" y="299" type="curve" smooth="yes"/>
			<point x="338" y="299"/>
			<point x="300" y="287"/>
			<point x="242" y="255" type="curve"/>
			<point x="242" y="235" type="line"/>
			<point x="303" y="271"/>
			<point x="341" y="279"/>
			<point x="382" y="279" type="curve" smooth="yes"/>
			<point x="466" y="279"/>
			<point x="511" y="232"/>
			<point x="511" y="154" type="curve" smooth="yes"/>
			<point x="511" y="51"/>
			<point x="454" y="7"/>
			<point x="381" y="7" type="curve" smooth="yes"/>
			<point x="310" y="7"/>
			<point x="261" y="47"/>
			<point x="261" y="162" type="curve" smooth="yes"/>
			<point x="261" y="324" type="line"/>
			<point x="265" y="470" type="line"/>
			<point x="235" y="470" type="line"/>
			<point x="233" y="154" type="line" smooth="yes"/>
			<point x="232" y="44"/>
			<point x="283" y="-13"/>
		</contour>
		<contour>
			<point x="247" y="444" type="line"/>
			<point x="257" y="444" type="line"/>
			<point x="365" y="450" type="line"/>
			<point x="365" y="470" type="line"/>
			<point x="247" y="470" type="line"/>
		</contour>
	</outline>
</glyph>
<glyph name="q.sups" format="2">
	<advance width="364"/>
	<outline>
		<contour>
			<point x="66" y="588" type="curve" smooth="yes"/>
			<point x="66" y="689"/>
			<point x="114" y="736"/>
			<point x="179" y="736" type="curve" smooth="yes"/>
			<point x="212" y="736"/>
			<point x="241" y="719"/>
			<point x="278" y="682" type="curve"/>
			<point x="283" y="693" type="line"/>
			<point x="252" y="740"/>
			<point x="212" y="758"/>
			<point x="177" y="758" type="curve" smooth="yes"/>
			<point x="95" y="758"/>
			<point x="38" y="692"/>
			<point x="38" y="588" type="curve" smooth="yes"/>
			<point x="38" y="494"/>
			<point x="89" y="427"/>
			<point x="167" y="427" type="curve" smooth="yes"/>
			<point x="207" y="427"/>
			<point x="251" y="446"/>
			<point x="283" y="496" type="curve"/>
			<point x="277" y="508" type="line"/>
			<point x="243" y="465"/>
			<point x="211" y="449"/>
			<point x="173" y="449" type="curve" smooth="yes"/>
			<point x="112" y="449"/>
			<point x="66" y="496"/>
		</contour>
		<contour>
			<point x="284" y="299" type="line"/>
			<point x="207" y="292" type="line"/>
			<point x="207" y="276" type="line"/>
			<point x="359" y="276" type="line"/>
			<point x="359" y="292" type="line"/>
			<point x="291" y="299" type="line"/>
		</contour>
		<contour>
			<point x="299" y="747" type="line"/>
			<point x="287" y="750" type="line"/>
			<point x="273" y="704" type="line"/>
			<point x="273" y="276" type="line"/>
			<point x="299" y="276" type="line"/>
		</contour>
	</outline>
</glyph>
<glyph name="six.cap" format="1">
	<advance width="490"/>
	<outline>
		<contour>
			<point x="250" y="7" type="curve" smooth="yes"/>
			<point x="142" y="7"/>
			<point x="85" y="118"/>
			<point x="85" y="256" type="curve" smooth="yes"/>
			<point x="85" y="460"/>
			<point x="212" y="634"/>
			<point x="435" y="674" type="curve"/>
			<point x="432" y="690" type="line"/>
			<point x="198" y="658"/>
			<point x="53" y="464"/>
			<point x="53" y="255" type="curve" smooth="yes"/>
			<point x="53" y="96"/>
			<point x="124" y="-13"/>
			<point x="248" y="-13" type="curve" smooth="yes"/>
			<point x="354" y="-13"/>
			<point x="437" y="77"/>
			<point x="437" y="203" type="curve" smooth="yes"/>
			<point x="437" y="328"/>
			<point x="370" y="406"/>
			<point x="261" y="406" type="curve" smooth="yes"/>
			<point x="184" y="406"/>
			<point x="124" y="370"/>
			<point x="69" y="292" type="curve"/>
			<point x="79" y="283" type="line"/>
			<point x="140" y="358"/>
			<point x="191" y="386"/>
			<point x="256" y="386" type="curve" smooth="yes"/>
			<point x="348" y="386"/>
			<point x="405" y="319"/>
			<point x="405" y="200" type="curve" smooth="yes"/>
			<point x="405" y="82"/>
			<point x="335" y="7"/>
		</contour>
	</outline>
</glyph>
<glyph name="six.lf" format="2">
	<advance width="500"/>
	<outline>
		<contour>
			<point x="259" y="7" type="curve" smooth="yes"/>
			<point x="151" y="7"/>
			<point x="94" y="114"/>
			<point x="94" y="245" type="curve" smooth="yes"/>
			<point x="94" y="442"/>
			<point x="221" y="611"/>
			<point x="444" y="651" type="curve"/>
			<point x="441" y="667" type="line"/>
			<point x="207" y="635"/>
			<point x="62" y="446"/>
			<point x="62" y="244" type="curve" smooth="yes"/>
			<point x="62" y="93"/>
			<point x="133" y="-13"/>
			<point x="257" y="-13" type="curve" smooth="yes"/>
			<point x="361" y="-13"/>
			<point x="446" y="79"/>
			<point x="446" y="198" type="curve" smooth="yes"/>
			<point x="446" y="319"/>
			<point x="379" y="395"/>
			<point x="270" y="395" type="curve" smooth="yes"/>
			<point x="193" y="395"/>
			<point x="133" y="359"/>
			<point x="78" y="281" type="curve"/>
			<point x="88" y="272" type="line"/>
			<point x="149" y="347"/>
			<point x="200" y="375"/>
			<point x="265" y="375" type="curve" smooth="yes"/>
			<point x="357" y="375"/>
			<point x="414" y="310"/>
			<point x="414" y="195" type="curve" smooth="yes"/>
			<point x="414" y="84"/>
			<point x="342" y="7"/>
		</contour>
	</outline>
</glyph>
<glyph name="soft.bgr" format="2">
	<advance width="469"/>
	<outline>
		<contour>
			<point x="288" y="-13" type="curve" smooth="yes"/>
			<point x="399" y="-13"/>
			<point x="454" y="61"/>
			<point x="454" y="154" type="curve" smooth="yes"/>
			<point x="454" y="233"/>
			<point x="416" y="299"/>
			<point x="312" y="299" type="curve" smooth="yes"/>
			<point x="259" y="299"/>
			<point x="200" y="271"/>
			<point x="155" y="215" type="curve"/>
			<point x="155" y="195" type="line"/>
			<point x="203" y="255"/>
			<point x="262" y="279"/>
			<point x="306" y="279" type="curve" smooth="yes"/>
			<point x="387" y="279"/>
			<point x="424" y="232"/>
			<point x="424" y="154" type="curve" smooth="yes"/>
			<point x="424" y="51"/>
			<point x="367" y="7"/>
			<point x="294" y="7" type="curve" smooth="yes"/>
			<point x="223" y="7"/>
			<point x="174" y="47"/>
			<point x="174" y="162" type="curve" smooth="yes"/>
			<point x="174" y="324" type="line"/>
			<point x="178" y="462" type="line"/>
			<point x="169" y="474" type="line"/>
			<point x="60" y="468" type="line"/>
			<point x="60" y="448" type="line"/>
			<point x="161" y="441" type="line"/>
			<point x="148" y="452" type="line"/>
			<point x="146" y="154" type="line" smooth="yes"/>
			<point x="145" y="44"/>
			<point x="196" y="-13"/>
		</contour>
	</outline>
</glyph>
<glyph name="three.cap" format="1">
	<advance width="490"/>
	<outline>
		<contour>
			<point x="159" y="365" type="line"/>
			<point x="159" y="345" type="line"/>
			<point x="201" y="345" type="line" smooth="yes"/>
			<point x="330" y="345"/>
			<point x="393" y="284"/>
			<point x="393" y="179" type="curve" smooth="yes"/>
			<point x="393" y="76"/>
			<point x="330" y="7"/>
			<point x="216" y="7" type="curve" smooth="yes"/>
			<point x="160" y="7"/>
			<point x="126" y="21"/>
			<point x="94" y="43" type="curve"/>
			<point x="122" y="12" type="line"/>
			<point x="86" y="98" type="line" smooth="yes"/>
			<point x="81" y="109"/>
			<point x="74" y="114"/>
			<point x="65" y="114" type="curve" smooth="yes"/>
			<point x="53" y="114"/>
			<point x="45" y="106"/>
			<point x="45" y="95" type="curve"/>
			<point x="72" y="25"/>
			<point x="135" y="-13"/>
			<point x="225" y="-13" type="curve" smooth="yes"/>
			<point x="337" y="-13"/>
			<point x="425" y="55"/>
			<point x="425" y="175" type="curve" smooth="yes"/>
			<point x="425" y="285"/>
			<point x="355" y="353"/>
			<point x="233" y="357" type="curve"/>
			<point x="233" y="353" type="line"/>
			<point x="341" y="365"/>
			<point x="404" y="440"/>
			<point x="404" y="526" type="curve" smooth="yes"/>
			<point x="404" y="622"/>
			<point x="339" y="690"/>
			<point x="235" y="690" type="curve" smooth="yes"/>
			<point x="163" y="690"/>
			<point x="86" y="659"/>
			<point x="62" y="576" type="curve"/>
			<point x="64" y="567"/>
			<point x="71" y="562"/>
			<point x="80" y="562" type="curve" smooth="yes"/>
			<point x="90" y="562"/>
			<point x="97" y="565"/>
			<point x="103" y="580" type="curve" smooth="yes"/>
			<point x="136" y="664" type="line"/>
			<point x="110" y="634" type="line"/>
			<point x="150" y="660"/>
			<point x="184" y="670"/>
			<point x="233" y="670" type="curve" smooth="yes"/>
			<point x="322" y="670"/>
			<point x="372" y="613"/>
			<point x="372" y="526" type="curve" smooth="yes"/>
			<point x="372" y="423"/>
			<point x="295" y="365"/>
			<point x="200" y="365" type="curve" smooth="yes"/>
		</contour>
	</outline>
</glyph>
<glyph name="tonos.cap" format="1">
	<advance width="20"/>
	<outline>
		<contour>
			<point x="-33" y="480" type="curve"/>
			<point x="-19" y="476" type="line"/>
			<point x="2" y="525"/>
			<point x="23" y="572"/>
			<point x="41" y="621" type="curve" smooth="yes"/>
			<point x="45" y="632"/>
			<point x="48" y="640"/>
			<point x="48" y="650" type="curve" smooth="yes"/>
			<point x="48" y="660"/>
			<point x="42" y="667"/>
			<point x="31" y="667" type="curve" smooth="yes"/>
			<point x="22" y="667"/>
			<point x="13" y="660"/>
			<point x="-2" y="605" type="curve" smooth="yes"/>
			<point x="-7" y="587"/>
			<point x="-20" y="533"/>
		</contour>
	</outline>
</glyph>
<glyph name="tonoscmb" format="1">
	<outline>
		<contour>
			<point x="-20" y="570" type="line"/>
			<point x="-7" y="565" type="line"/>
			<point x="63" y="712" type="line" smooth="yes"/>
			<point x="75" y="738"/>
			<point x="79" y="745"/>
			<point x="79" y="754" type="curve" smooth="yes"/>
			<point x="79" y="765"/>
			<point x="71" y="770"/>
			<point x="63" y="770" type="curve" smooth="yes"/>
			<point x="48" y="770"/>
			<point x="44" y="757"/>
			<point x="35" y="730" type="curve" smooth="yes"/>
		</contour>
		<contour>
			<point name="_aboveLC" x="0" y="500" type="move"/>
		</contour>
	</outline>
</glyph>
<glyph name="ve.bgr" format="2">
	<advance width="490"/>
	<outline>
		<contour>
			<point x="78" y="46"/>
			<point x="147" y="-13"/>
			<point x="249" y="-13" type="curve" smooth="yes"/>
			<point x="388" y="-13"/>
			<point x="453" y="87"/>
			<point x="453" y="187" type="curve" smooth="yes"/>
			<point x="453" y="312"/>
			<point x="375" y="378"/>
			<point x="241" y="396" type="curve"/>
			<point x="231" y="381" type="line"/>
			<point x="366" y="356"/>
			<point x="422" y="302"/>
			<point x="422" y="180" type="curve" smooth="yes"/>
			<point x="422" y="72"/>
			<point x="360" y="7"/>
			<point x="250" y="7" type="curve" smooth="yes"/>
			<point x="160" y="7"/>
			<point x="108" y="60"/>
			<point x="108" y="204" type="curve" smooth="yes"/>
			<point x="108" y="533" type="line" smooth="yes"/>
			<point x="108" y="673"/>
			<point x="183" y="737"/>
			<point x="262" y="737" type="curve" smooth="yes"/>
			<point x="361" y="737"/>
			<point x="401" y="669"/>
			<point x="401" y="586" type="curve" smooth="yes"/>
			<point x="401" y="465"/>
			<point x="325" y="416"/>
			<point x="211" y="396" type="curve" smooth="yes"/>
			<point x="93" y="375" type="line"/>
			<point x="93" y="355" type="line"/>
			<point x="213" y="377" type="line" smooth="yes"/>
			<point x="373" y="406"/>
			<point x="431" y="492"/>
			<point x="431" y="580" type="curve" smooth="yes"/>
			<point x="431" y="680"/>
			<point x="382" y="758"/>
			<point x="268" y="758" type="curve" smooth="yes"/>
			<point x="161" y="758"/>
			<point x="78" y="678"/>
			<point x="78" y="537" type="curve" smooth="yes"/>
			<point x="78" y="198" type="line" smooth="yes"/>
		</contour>
	</outline>
</glyph>
<glyph name="ze.bgr" format="2">
	<advance width="427"/>
	<outline>
		<contour>
			<point x="197" y="-255" type="curve" smooth="yes"/>
			<point x="326" y="-255"/>
			<point x="392" y="-157"/>
			<point x="392" y="-55" type="curve" smooth="yes"/>
			<point x="392" y="51"/>
			<point x="331" y="128"/>
			<point x="206" y="135" type="curve"/>
			<point x="201" y="129" type="line"/>
			<point x="326" y="135"/>
			<point x="375" y="216"/>
			<point x="375" y="305" type="curve" smooth="yes"/>
			<point x="375" y="416"/>
			<point x="309" y="483"/>
			<point x="208" y="483" type="curve" smooth="yes"/>
			<point x="153" y="483"/>
			<point x="103" y="473"/>
			<point x="52" y="443" type="curve"/>
			<point x="54" y="327" type="line"/>
			<point x="76" y="327" type="line"/>
			<point x="85" y="452" type="line"/>
			<point x="69" y="440" type="line"/>
			<point x="69" y="424" type="line"/>
			<point x="112" y="451"/>
			<point x="154" y="463"/>
			<point x="205" y="463" type="curve" smooth="yes"/>
			<point x="296" y="463"/>
			<point x="347" y="403"/>
			<point x="347" y="306" type="curve" smooth="yes"/>
			<point x="347" y="196"/>
			<point x="288" y="142"/>
			<point x="174" y="142" type="curve" smooth="yes"/>
			<point x="134" y="142" type="line"/>
			<point x="134" y="121" type="line"/>
			<point x="176" y="121" type="line" smooth="yes"/>
			<point x="304" y="121"/>
			<point x="361" y="58"/>
			<point x="361" y="-52" type="curve" smooth="yes"/>
			<point x="361" y="-165"/>
			<point x="301" y="-235"/>
			<point x="200" y="-235" type="curve" smooth="yes"/>
			<point x="135" y="-235"/>
			<point x="99" y="-220"/>
			<point x="63" y="-195" type="curve"/>
			<point x="91" y="-228" type="line"/>
			<point x="55" y="-142" type="line" smooth="yes"/>
			<point x="50" y="-131"/>
			<point x="43" y="-126"/>
			<point x="34" y="-126" type="curve" smooth="yes"/>
			<point x="22" y="-126"/>
			<point x="14" y="-134"/>
			<point x="14" y="-145" type="curve"/>
			<point x="41" y="-217"/>
			<point x="104" y="-255"/>
		</contour>
	</outline>
</glyph>
<glyph name="zhe.bgr" format="2">
	<advance width="694"/>
	<outline>
		<contour>
			<point x="241" y="0" type="line"/>
			<point x="444" y="0" type="line"/>
			<point x="444" y="20" type="line"/>
			<point x="350" y="26" type="line"/>
			<point x="341" y="26" type="line"/>
			<point x="241" y="20" type="line"/>
		</contour>
		<contour>
			<point x="333" y="148"/>
			<point x="332" y="45"/>
			<point x="330" y="0" type="curve"/>
			<point x="364" y="0" type="line"/>
			<point x="362" y="45"/>
			<point x="361" y="148"/>
			<point x="361" y="210" type="curve" smooth="yes"/>
			<point x="361" y="598" type="line"/>
			<point x="363" y="740" type="line"/>
			<point x="349" y="748" type="line"/>
			<point x="242" y="736" type="line"/>
			<point x="242" y="716" type="line"/>
			<point x="333" y="716" type="line"/>
			<point x="333" y="210" type="line" smooth="yes"/>
		</contour>
		<contour>
			<point x="345" y="238" type="line"/>
			<point x="457" y="238" type="line"/>
			<point x="623" y="470" type="line"/>
			<point x="591" y="470" type="line"/>
			<point x="445" y="256" type="line"/>
			<point x="345" y="256" type="line"/>
		</contour>
		<contour>
			<point x="587" y="0" type="line"/>
			<point x="689" y="0" type="line"/>
			<point x="689" y="20" type="line"/>
			<point x="605" y="25" type="line"/>
			<point x="467" y="258" type="line"/>
			<point x="446" y="238" type="line"/>
		</contour>
		<contour>
			<point x="469" y="450" type="line"/>
			<point x="571" y="444" type="line"/>
			<point x="579" y="444" type="line"/>
			<point x="689" y="450" type="line"/>
			<point x="689" y="470" type="line"/>
			<point x="469" y="470" type="line"/>
		</contour>
		<contour>
			<point x="349" y="238" type="line"/>
			<point x="349" y="256" type="line"/>
			<point x="249" y="256" type="line"/>
			<point x="103" y="470" type="line"/>
			<point x="71" y="470" type="line"/>
			<point x="237" y="238" type="line"/>
		</contour>
		<contour>
			<point x="107" y="0" type="line"/>
			<point x="248" y="238" type="line"/>
			<point x="227" y="258" type="line"/>
			<point x="89" y="25" type="line"/>
			<point x="5" y="20" type="line"/>
			<point x="5" y="0" type="line"/>
		</contour>
		<contour>
			<point x="225" y="450" type="line"/>
			<point x="225" y="470" type="line"/>
			<point x="5" y="470" type="line"/>
			<point x="5" y="450" type="line"/>
			<point x="115" y="444" type="line"/>
			<point x="123" y="444" type="line"/>
		</contour>
	</outline>
</glyph>
